<?xml version="1.0" encoding="UTF-8"?> <svg xmlns="http://www.w3.org/2000/svg" id="uuid-65891176-a63e-4fda-87d9-9ee89000a0e4" data-name="Layer 2" width="480" height="480" viewBox="0 0 480 480"><g id="uuid-45a21a4f-721a-49ad-9ef2-cd00336eadf3" data-name="Layer 1"><rect width="480" height="480" style="fill: none; stroke-width: 0px;"></rect><g><g><path d="M81.03383,260.45897l61.66555.04426,66.02743-51.03546h112.11543l-16.63083,51.03546h49.87573l16.52431-51.03546h56.20524l41.80784-32.37599h-87.39206l47.96947-147.3283h-49.93709l-190.41154,147.3283h-75.27312l20.7618-63.76705L10.01912,209.46555h136.95696l-65.94224,50.99342ZM358.5651,93.57479l-27.14492,83.5181h-80.82195l107.96687-83.5181Z" style="fill: #fff; stroke-width: 0px;"></path><path d="M132.73188,400.87004h3.8297v-11.90576h13.4926v-3.4573h-13.4926v-8.07606h14.71598v-3.4573h-18.54568v26.89642Z" style="fill: #fff; stroke-width: 0px;"></path><path d="M163.11988,377.26768h6.71957v23.59779h3.83857v-26.90438h-10.55813v3.30659Z" style="fill: #fff; stroke-width: 0px;"></path><path d="M190.21715,373.15998c-2.70384,0-4.66302,1.77301-4.66302,4.66302,0,2.86334,1.95918,4.66302,4.66302,4.66302,2.67724,0,4.66302-1.7996,4.66302-4.66302,0-2.88994-1.98577-4.66302-4.66302-4.66302M190.21715,381.66156c-2.18967,0-3.82084-1.43614-3.82084-3.83857,0-2.42016,1.63117-3.86509,3.82084-3.86509,2.17194,0,3.77665,1.445,3.77665,3.86509,0,2.40243-1.60457,3.83857-3.77665,3.83857" style="fill: #fff; stroke-width: 0px;"></path><path d="M192.28242,376.83648c0-1.02835-.67374-1.54252-1.97691-1.54252h-2.0301v5.06201h1.117v-1.88826h.70034l1.07267,1.88826h1.21451l-1.17019-2.07442c.70034-.21262,1.07267-.70034,1.07267-1.445M190.34984,377.55462h-.95743v-1.34749h.95743c.5319,0,.77126.25709.77126.64715,0,.44325-.23936.70034-.77126.70034" style="fill: #fff; stroke-width: 0px;"></path><path d="M217.47329,377.42656h9.29957v23.43891h3.8297v-23.43891h9.29071v-3.46616h-22.41971l-.00028,3.46616Z" style="fill: #fff; stroke-width: 0px;"></path><path d="M252.53636,400.87004h18.54568v-3.46616h-14.70725v-8.43966h13.48374v-3.4573h-13.48374v-8.07606h14.70725v-3.4573h-18.54568v26.89649Z" style="fill: #fff; stroke-width: 0px;"></path><path d="M291.88858,373.97702l-9.58326,26.89753h4.07792l2.44675-7.05665h11.65754l2.43789,7.05665h4.07792l-9.61858-26.89753h-5.49619ZM290.05352,390.35977l4.6011-13.28878,4.60969,13.28878h-9.21078Z" style="fill: #fff; stroke-width: 0px;"></path><path d="M334.07776,397.96508l-7.6594-23.9972h-6.56886v26.89753h3.83857v-23.31411l7.45564,23.31411h5.86852l7.53529-23.59779v23.59779h3.83857v-26.89753h-6.64879l-7.65954,23.9972Z" style="fill: #fff; stroke-width: 0px;"></path><path d="M10,341.79613h12.56191l6.63992-7.49103h36.0367l6.64879,7.49103h12.56191l-37.22351-40.65497-37.22572,40.65497ZM35.56763,327.21306l11.65754-13.12013,11.65754,13.12013h-23.31508Z" style="fill: #fff; stroke-width: 0px;"></path><path d="M282.425,302.39848h-10.63806v39.41359h10.63806v-39.41359Z" style="fill: #fff; stroke-width: 0px;"></path><path d="M371.00179,326.70429l-44.03186-24.32625h-10.7533v39.41359h9.85807v-29.11254l54.89349,30.23819v-40.53924h-9.96431l-.00208,24.32625Z" style="fill: #fff; stroke-width: 0px;"></path><path d="M117.95786,302.39848h-10.64692v39.41359h48.3756l2.97866-7.09204h-40.70941l.00208-32.32155Z" style="fill: #fff; stroke-width: 0px;"></path><path d="M425.4005,334.71545v-9.40575h43.18996v-7.09204h-43.18996v-8.73214h43.18996v-7.09204h-53.82913v39.41359h53.26176l1.97691-7.09204-44.5995.00042Z" style="fill: #fff; stroke-width: 0px;"></path><path d="M226.57382,302.39848h-45.54792v39.41359h10.63806v-13.17346h34.40484c12.7834,0,17.73896-5.35456,17.73896-13.28878,0-7.6594-5.40768-12.95177-17.23379-12.95177M224.03855,321.5377h-32.37599v-12.0476h32.32155c6.41829,0,8.38634,1.96804,8.38634,6.14341,0,3.65247-2.75689,5.90419-8.33315,5.90419" style="fill: #fff; stroke-width: 0px;"></path></g><path d="M206.14874,443.49036l-8.53704,6.74616h30.86006l8.53704-6.74616h-30.86006Z" style="fill: #2173b8; stroke-width: 0px;"></path><path d="M237.01324,443.49036l-8.53704,6.74616h14.39698l8.53704-6.74616h-14.39698Z" style="fill: #fffffd; stroke-width: 0px;"></path><path d="M251.42435,443.49036l-8.53704,6.74616h30.97351l8.53704-6.74616h-30.97351Z" style="fill: #e12319; stroke-width: 0px;"></path></g></g></svg> 