<?xml version="1.0" encoding="UTF-8"?> <svg xmlns="http://www.w3.org/2000/svg" id="uuid-15ad4766-b361-4498-ac75-38743c65d672" data-name="Layer 2" width="480" height="480" viewBox="0 0 480 480"><g id="uuid-a19551f6-59b5-4d3d-bf78-68c57cdd5c7e" data-name="Layer 1"><rect width="480" height="480" style="fill: none; stroke-width: 0px;"></rect><g id="uuid-5f833625-b381-42c5-a251-46a4ba344401" data-name="Logo"><path d="M240.95129,214.65245c-59.90127,0-152.57639.30687-230.95129,2.02535v.36825c78.37491,1.71848,175.1621,2.08672,234.87926,2.08672,22.09473,0,134.16413-.06138,225.12074-2.08672v-.36825c-62.66309-1.35023-144.04537-2.02535-229.04871-2.02535" style="fill: #fff; stroke-width: 0px;"></path><path d="M444.52969,85.21417h-170.12943c-3.06871,0-7.36491-.06137-11.9066,4.48032-4.2962,4.2962-3.00733,8.59239-10.12675,8.59239h-24.79519c-7.11942,0-5.83055-4.23482-10.12675-8.59239-4.54169-4.54169-8.83789-4.48032-11.9066-4.48032H35.34756c-5.83055,0-8.40827,5.15544-5.58506,9.75851l3.06871,5.09406c1.65711,2.82322,3.8052,3.25283,5.40093,3.55971,1.47298.30687,2.33222.49099,3.49833,2.45497l2.70047,4.72582c2.08673,3.86658,4.60307,4.35757,6.4443,4.66444,1.47298.30687,2.76184.36824,4.60307,3.68245,1.96397,3.55971,4.60307,8.04003,10.80187,9.94263,0,0,63.52235,18.53502,63.58372,18.53502,6.62842,2.1481,8.28552,4.5417,10.2495,7.36491,1.04336,1.47298,4.17345,6.75117,12.76585,9.08339l60.45364,16.32555c5.64644,1.53436,9.63576-.61374,12.39761-3.06871l10.98599-10.37224c2.82322-2.63909,3.98933-2.63909,6.81255,0l10.98599,10.37224c2.76184,2.45497,6.68979,4.60307,12.39761,3.06871l60.45362-16.32555c8.59239-2.33222,11.72247-7.61041,12.76584-9.08339,1.96398-2.82321,3.6211-5.21681,10.24951-7.36491l63.58371-18.53502c6.19878-1.84123,8.83791-6.32155,10.80185-9.94263,1.77987-3.31421,3.13007-3.43696,4.60307-3.68245,1.84123-.36824,4.35756-.79786,6.4443-4.66444l2.70048-4.72582c1.10473-1.96398,2.02534-2.1481,3.49834-2.45497,1.59572-.30687,3.74381-.73649,5.40093-3.55971l3.06871-5.09406c2.45501-4.60307-.12272-9.75851-5.95327-9.75851M35.47031,95.77054l-1.84123-3.06871c-.55237-.92061-.92061-3.00734,1.71848-3.00734h170.19078c3.43696,0,7.30353-.06137,11.04736,6.4443.49099.85924,1.04337,1.84123,1.77985,2.76184H45.90392c-6.99665.06137-8.34688.06137-10.4336-3.13009M145.82122,102.39896h188.29618v29.52101h-188.29618v-29.52101ZM48.97265,109.64112c-1.59573-1.59573-2.63909-4.90994-4.0507-6.87392l97.58505-.42962v4.2962l-82.54836,4.78719c-6.50567.49099-9.14476.12275-10.98599-1.77985M61.73849,120.8726c-.92061-1.16611-1.6571-2.51634-2.3936-3.8052-.36824-.67512-.73649-1.22748-1.10474-1.71848,1.16611-.06137,1.41161-.12275,3.62108-.2455l80.52301-4.97131v4.60307l-63.64509,6.81254c-8.53102.92061-14.36158,2.20947-17.00067-.67512M83.52635,129.52637c-4.66444-1.35023-8.71514-2.51634-11.59973-3.37558,7.73315-.92061,70.45764-7.91728,70.45764-7.91728v5.09406l-40.7525,6.56705c-4.72582.79787-10.37226,1.71848-18.10541-.36824M111.81988,137.8119c-4.11207-1.16611-8.53102-2.45497-12.88859-3.74383,1.16611-.18412,1.96397-.30687,3.31421-.491,4.11207-.67512,40.20013-6.68979,40.20013-6.68979v5.52368s-15.09807,4.2962-15.15944,4.2962c-.12275-.06137-9.45163,2.76185-15.46631,1.10474M131.03002,143.39696h0c-.61374-.18412-3.37558-.98199-7.42629-2.1481,2.63909-.491,4.2962-1.04336,4.66445-1.16611.24549-.06137,16.4483-4.78719,16.4483-4.78719h18.41227l-17.00067,7.91728c-5.46231,2.08673-10.2495,1.47298-15.09807.18412M147.96931,157.08341c-2.02535-1.41161-3.13009-2.94597-4.2962-4.60307-.98199-1.41161-1.96397-2.82321-3.55971-4.2962.36825,0,2.08672-.12275,3.98933-.61374,2.02535-.491,6.4443-2.3936,6.4443-2.3936l20.43762-9.94263h13.62509l-26.82055,18.96464c-4.0507,2.76184-7.30354,3.74383-9.81988,2.88459M168.22281,163.65046l-13.13409-3.55971c1.77985-.73649,3.49833-1.71848,4.90994-2.63909,1.35023-.92061-.18412.2455,30.87124-22.21748h11.41561l-20.99,21.48099c-3.74381,3.8052-7.79452,7.97865-13.07271,6.93529M188.90594,169.29689l-12.33623-3.31421c3.37558-1.96397,6.38292-5.27818,7.54903-6.4443l23.32221-24.18146h10.18813l-18.59639,29.03002c-3.00733,4.54169-6.50567,5.52368-10.12675,4.90994M210.50968,175.12744l-13.13409-3.55971c.61374-.42962,2.94596-1.84123,5.15543-5.40094l19.45564-30.93262h8.83789s-11.41561,33.51034-12.21347,35.16744c-2.27085,4.97132-4.90996,5.33957-8.10141,4.72582M257.33823,174.08408l-10.86325-10.31088c-4.54169-4.2962-8.40828-4.2962-13.01135,0l-10.86325,10.31088c-.85924.73649-1.65711,1.28886-2.51635,1.71848,2.02534-2.51635,3.19147-6.01468,3.92795-8.28552l10.80187-32.22148h10.31087l10.80187,32.22148c.79786,2.39359,1.96398,5.83055,3.92795,8.28552-.8592-.42963-1.65707-.98199-2.51631-1.71848M269.36758,175.12744c-3.19147.61374-5.83055.24549-8.10141-4.66445-.79786-1.71848-12.21347-35.16745-12.21347-35.16745h8.83789l19.45564,30.93263c2.20948,3.49833,4.48031,4.97132,5.15543,5.40094l-13.13409,3.49833ZM291.03268,169.29689c-3.62108.67512-7.11942-.36825-10.18813-4.97132l-18.59639-29.03002h10.24951l23.32221,24.18146c1.16611,1.22748,4.11208,4.48032,7.54903,6.4443l-12.33623,3.37558ZM311.71581,163.65046c-5.33957,1.04336-9.39025-3.19146-13.07271-6.93529l-20.99-21.48099h11.41561s29.52102,21.29686,30.87124,22.21748c1.4116.92061,3.06871,1.9026,4.90994,2.63909l-13.13409,3.55971ZM336.20414,152.54172c-1.16613,1.6571-2.20946,3.19146-4.2962,4.60307-2.45497.79787-5.76919-.18412-9.88126-2.82321-1.16611-.73649-26.82055-18.96464-26.82055-18.96464h13.62509s15.77317,7.79453,20.43764,9.94263c2.63909,1.22748,6.01467,2.76184,10.43362,3.00734-1.53436,1.35024-2.51637,2.82322-3.49834,4.23482M348.90861,143.39696h0c-4.84858,1.28886-9.63576,1.9026-15.09805-.18412-1.96398-.73649-17.00067-7.91728-17.00067-7.91728h18.41227s16.20282,4.72582,16.44829,4.78719c.42963.12275,2.02534.61374,4.66443,1.16611-4.05069,1.16611-6.81253,1.96397-7.42627,2.1481M368.11875,137.8119c-6.01467,1.6571-15.46632-1.16611-15.46632-1.16611-.06136,0-15.15945-4.2962-15.15945-4.2962v-5.52368s36.14945,6.01468,40.20013,6.68979c1.35024.2455,2.08674.36824,3.31422.491-4.41895,1.28886-8.77651,2.57772-12.88859,3.8052M396.41226,129.52637c-7.67178,2.02535-13.37958,1.10474-18.1054.36824-4.05069-.67512-40.81388-6.56705-40.81388-6.56705v-5.09406l70.45763,7.91728c-2.8232.85924-6.93528,2.02535-11.53835,3.37558M420.59373,117.12878c-.6751,1.28886-1.473,2.57772-2.39361,3.8052-2.63909,2.88459-8.46964,1.59573-17.06203.67512l-63.6451-6.81254v-4.66444s79.54101,4.90994,80.52302,4.97132c2.20946.12275,2.45497.18412,3.6211.2455-.36827.55236-.7365,1.10473-1.04337,1.77985M429.73851,110.19349c-3.13007,1.96398-6.62841,1.41161-17.12343.79786l-75.1221-4.35757v-4.2962l97.5237.42962c-1.96398,2.82321-2.51633,5.7078-5.27817,7.42628M446.30955,92.70182l-1.84123,3.06871c-2.08674,3.19146-3.43694,3.19146-10.43362,3.19146h-172.46164c.7365-.92061,1.28886-1.9026,1.77985-2.76184,3.74383-6.50567,7.6104-6.4443,11.04736-6.4443h170.19077c2.63912-.06138,2.27085,2.02535,1.71851,2.94596M254.14676,125.96667c-.42963-5.33956-.7365-8.46965-.98199-10.61774-2.8846,5.21681-4.11208,7.67178-5.27819,10.37225h-1.16611c-2.8846-5.83055-3.19147-6.50567-3.98933-8.04003-.24549-.49099-.61374-1.10474-1.16611-2.20947-.24549,2.08673-.67512,6.26017-.98199,10.495h-2.94596c.85924-6.13742,2.20948-16.57105,2.33221-17.43029h1.77985s4.23482,8.40827,6.07605,11.59973c2.1481-3.92795,3.49834-6.68979,6.26018-11.59973h1.59573c.30687,2.51634,1.22748,10.495,2.08672,17.43029h-3.62108ZM307.9106,108.53638h-3.43696v17.43029h3.43696v-17.43029ZM297.53836,125.96667v-14.85257c2.57773.06137,3.92795.18412,5.21681.36824v-2.94596h-14.0547v2.94596c1.47298-.18412,2.94596-.30687,5.40093-.36824v14.85257h3.43696ZM188.66044,125.96667v-14.85257c2.57773.06137,3.92795.18412,5.21681.36824v-2.94596h-14.0547v2.94596c1.47298-.18412,2.94596-.30687,5.40093-.36824v14.85257h3.43696ZM228.98331,125.96667v-17.43029h-2.70046v11.23149l-10.37224-11.23149h-1.96398v17.43029h2.76184v-11.78386l10.55638,11.78386h1.71847ZM168.28419,121.05673v3.86658c1.10473.67512,2.45497,1.47298,4.72582,1.47298,3.74383,0,7.11942-2.08673,7.11942-5.7078,0-1.16611-.36825-3.25283-3.00733-4.41895-2.20948-.98199-3.62108-1.22748-4.60307-2.02535-1.71847-1.47298-.30687-3.8052,2.02534-3.8052.7365,0,2.45497.18412,2.94596,1.9026h1.28886v-3.19146c-1.22748-.55237-2.76184-1.10474-4.35758-1.10474-1.4116,0-2.76184.42962-3.86657,1.22748-2.63909,1.96398-3.37558,5.89193.36825,8.16277,2.39359,1.41161,5.58506,1.28886,5.7078,3.86658.06138,1.9026-1.77985,2.63909-3.13009,2.63909-2.76184,0-3.62108-2.3936-3.80521-2.88459h-1.4116ZM168.22281,125.96667l-7.67178-17.79853h-1.47298l-7.91727,17.79853h3.25284c.42962-1.41161.73649-2.51634,1.71848-4.90994h6.26017c.79787,1.9026,1.35023,3.62108,1.84123,4.90994h3.98932ZM157.11407,118.78588c.36825-.85924.42962-1.04336,2.1481-5.09406,1.6571,3.86658,1.77985,4.11208,2.1481,5.09406h-4.2962ZM211.67579,117.25152c0-6.13742-4.60307-9.32889-9.08338-9.32889s-9.0834,3.13009-9.0834,9.32889c0,6.13742,4.60307,9.32889,9.08338,9.32889,4.54171,0,9.0834-3.13009,9.0834-9.32889M202.65377,124.24819h0c-2.76184,0-5.21681-2.57772-5.21681-6.99667,0-4.60307,2.63909-6.99667,5.21681-6.99667h0c2.57773,0,5.21681,2.3936,5.21681,6.99667s-2.63909,6.99667-5.21681,6.99667h0ZM276.30286,125.96667h3.43696v-7.18079h.85924l5.83055,7.18079h4.2962l-6.50567-7.67178c.92061-.36824,1.71847-.85924,2.33221-1.47298,1.77985-1.77985,2.02534-4.84857,0-6.87392-1.04337-1.04336-2.20948-1.59573-5.15543-1.59573,0,0-3.98933.06137-5.0327.12275l-.06136,17.49166ZM279.73983,110.62311c.42963-.06137.79786-.06137,1.16611-.06137,3.5597,0,3.68245,2.63909,3.68245,3.00734,0,1.84123-1.59573,3.49833-4.84856,2.94596v-5.89193ZM275.38225,125.96667l-7.67178-17.79853h-1.47298l-7.91727,17.79853h3.25283c.42963-1.41161.7365-2.51634,1.71847-4.90994h6.1988c.79786,1.9026,1.35024,3.62108,1.84123,4.90994h4.0507ZM264.33489,118.78588c.36825-.85924.42963-1.04336,2.1481-5.09406,1.65711,3.86658,1.77985,4.11208,2.1481,5.09406h-4.2962ZM326.50701,125.96667v-17.43029h-2.70046v11.23149l-10.43362-11.23149h-1.96398v17.43029h2.76184v-11.78386l10.55636,11.78386h1.77987Z" style="fill: #fff; stroke-width: 0px;"></path><g><path d="M208.17745,364.09875h-2.20948l-13.19546,29.64376h5.0327c.49099-1.77985,1.10473-3.80521,2.8846-8.28552h10.80187c1.28886,3.19147,2.33221,6.13742,3.13009,8.28552h6.32154l-12.76586-29.64376ZM206.09073,372.69115c3.19147,7.36491,3.25283,7.36491,3.98933,9.32889h-7.97865c.85924-1.90261.92061-1.96398,3.98933-9.32889" style="fill: #fff; stroke-width: 0px;"></path><path d="M409.42361,364.09875h-2.1481l-13.19546,29.64376h5.0327c.49099-1.77985,1.10473-3.80521,2.8846-8.28552h10.80185c1.28884,3.19147,2.33221,6.13742,3.13007,8.28552h6.32154l-12.8272-29.64376ZM407.39827,372.69115c3.19147,7.36491,3.25283,7.36491,3.98933,9.32889h-7.97865c.85925-1.90261.85925-1.96398,3.98933-9.32889" style="fill: #fff; stroke-width: 0px;"></path><path d="M132.38025,393.74253c-.73649-9.20614-1.28886-14.72982-1.71848-18.41227-4.97132,8.96064-7.11942,13.31822-9.14476,17.98265h-1.6571c-5.03269-10.31087-5.58506-11.29286-6.75117-13.44096-.491-.92061-1.04336-1.96398-2.27085-4.35758-.24549,1.84123-1.10474,9.94264-1.71848,18.22816h-4.54169c1.47298-10.43362,3.74383-28.04804,3.86658-29.03001h2.70046c.42962.79786.79787,1.59573,1.16611,2.39359,3.31421,6.62841,5.9533,11.9066,9.14476,17.36891l.06138.06138.06138-.06138c1.41161-2.63909,2.76184-5.09406,3.98933-7.48767,1.96397-3.68245,3.98933-7.48767,6.68979-12.27485h2.39359c.12275.92061,1.77985,15.28218,3.43696,29.03001h-5.70781v.00002Z" style="fill: #fff; stroke-width: 0px;"></path><path d="M452.07871,393.74253c-.7365-9.20614-1.28884-14.72982-1.71847-18.41227-4.9713,8.96064-7.1194,13.31822-9.14478,17.98265h-1.65711c-5.0327-10.31087-5.58504-11.29286-6.75117-13.44096-.49099-.92061-1.04337-1.96398-2.27085-4.35758-.18412,1.84123-1.10473,9.94264-1.71847,18.22816h-4.54167c1.473-10.43362,3.74381-28.04804,3.86657-29.03001h2.70048c.42963.79786.79786,1.59573,1.16613,2.39359,3.31422,6.62841,5.95331,11.9066,9.14478,17.36891l.06136.06138.06136-.06138c1.4116-2.63909,2.76184-5.09406,3.98933-7.48767,1.96398-3.68245,3.98933-7.48767,6.68981-12.27485h2.39361c.12276.92061,1.77987,15.28218,3.43694,29.03001h-5.70784v.00002Z" style="fill: #fff; stroke-width: 0px;"></path><path d="M58.30153,394.78588c-6.07605,0-9.63576-3.19147-10.495-4.0507-2.45497-2.33221-4.60307-6.07605-4.60307-11.47699s2.1481-9.14476,4.60307-11.47699c.85924-.79786,4.41894-4.0507,10.495-4.0507,3.68245,0,10.74049,1.53436,13.80921,8.89927.85924,1.96398,1.22748,4.23482,1.22748,6.62841,0,5.40093-2.1481,9.14476-4.60307,11.47699-.85924.7979-4.41894,4.05072-10.43362,4.05072M58.30153,391.28756c4.48032,0,9.08339-4.17344,9.08339-12.09073s-4.5417-12.09073-9.08339-12.09073h0c-4.48032,0-9.08339,4.17344-9.08339,12.09073s4.5417,12.09073,9.08339,12.09073h0Z" style="fill: #fff; stroke-width: 0px;"></path><path d="M250.21881,394.78588c-6.07605,0-9.63576-3.19147-10.495-4.0507-2.45497-2.33221-4.60307-6.07605-4.60307-11.47699s2.1481-9.14476,4.60307-11.47699c.85924-.79786,4.41895-4.0507,10.495-4.0507,3.68245,0,10.74049,1.53436,13.80921,8.89927.85924,1.96398,1.22748,4.23482,1.22748,6.62841,0,5.40093-2.1481,9.14476-4.60307,11.47699-.79786.7979-4.35758,4.05072-10.43362,4.05072M250.21881,391.28756c4.48031,0,9.08338-4.17344,9.08338-12.09073s-4.54169-12.09073-9.08338-12.09073h0c-4.48031,0-9.08338,4.17344-9.08338,12.09073s4.60307,12.09073,9.08338,12.09073h0Z" style="fill: #fff; stroke-width: 0px;"></path><path d="M78.55503,364.65112c1.59573-.12276,8.16278-.18412,8.28552-.18412,4.97132,0,6.93529.98199,8.59239,2.63909,1.59573,1.59573,2.39359,3.62108,2.33222,5.76918-.06138,2.02534-.92061,4.0507-2.33222,5.4623-1.53436,1.53436-3.43696,2.27085-4.11207,2.51635l10.92462,12.82721h-6.62842l-9.81988-12.15209h-1.77985v12.15209h-5.40094l-.06137-29.03001ZM86.10407,367.71983c-.67512,0-1.41161.06138-2.1481.18412h-.06137v10.24951h.06137c.79787.12276,1.53436.18412,2.20947.18412,4.35757,0,6.32154-2.76184,6.32154-5.40093h0c0-.36825-.06138-2.1481-1.47298-3.5597-1.10474-1.10473-2.76184-1.65711-4.90994-1.65711" style="fill: #fff; stroke-width: 0px;"></path><polygon points="174.2375 393.74253 174.2375 364.71249 179.63842 364.71249 179.63842 389.93731 191.66778 389.93731 191.66778 393.74253 174.2375 393.74253" style="fill: #fff; stroke-width: 0px;"></polygon><polygon points="324.42027 365.8786 322.21081 365.8786 322.21081 364.71249 328.10273 364.71249 328.10273 365.8786 325.83187 365.8786 325.83187 372.26154 324.42027 372.26154 324.42027 365.8786" style="fill: #fff; stroke-width: 0px;"></polygon><path d="M335.77451,369.19283c-.06136-.98199-.12276-2.1481-.12276-3.19147h-.06136c-.24551.92061-.55238,1.96398-.92061,2.8846l-1.04337,3.31421h-1.16613l-1.04337-3.25283c-.30687-.98199-.55238-2.02534-.79786-2.94596h0c-.06136.98199-.06136,2.20948-.12276,3.25283l-.18412,3.06871h-1.35024l.49099-7.54903h1.90259l1.04337,3.06871c.30687.85924.49099,1.77985.7365,2.63909h.06136c.18412-.79786.49099-1.77985.79786-2.63909l1.10473-3.00733h1.90259l.42963,7.54903h-1.4116l-.24544-3.19147Z" style="fill: #fff; stroke-width: 0px;"></path><path d="M292.87391,393.74253c-1.22748-1.53436-9.88126-11.10874-18.16678-20.2535v20.2535h-4.17344v-29.03001h2.94596l17.85991,19.39427v-19.39427h4.17344v29.03001h-2.63909Z" style="fill: #fff; stroke-width: 0px;"></path><path d="M356.39628,393.74253v-25.10206c-4.54171.06138-7.36491.36825-9.14478.55236v-4.54169h23.32221v4.54169c-1.35024-.18412-3.98933-.55236-8.77651-.61374v25.10206l-5.40093.06138h0Z" style="fill: #fff; stroke-width: 0px;"></path><path d="M307.41962,389.87594v-9.39025h10.37224v-3.5597h-10.37224v-8.59239c2.45497,0,5.89193,0,11.84522.36825v-4.11208h-17.24617v29.03001h17.73715v-4.2962c-3.92795.36825-8.40826.55236-12.33621.55236" style="fill: #fff; stroke-width: 0px;"></path><path d="M379.77985,389.87594v-9.39025h10.37226v-3.5597h-10.37226v-8.59239c2.45497,0,5.89191,0,11.84522.36825v-4.11208h-17.24615v29.03001h17.73717v-4.2962c-3.92797.36825-8.46968.55236-12.33625.55236" style="fill: #fff; stroke-width: 0px;"></path><path d="M163.06737,364.71249c.18412,11.17012.12275,15.58906.12275,15.58906,0,3.62108-.24549,10.18813-7.24216,10.18813-2.51635,0-7.48766-.42963-7.48766-8.71515,0-7.48767.18412-16.75516.18412-17.06203h-5.64643v17.06203c0,11.9066,9.57439,12.39761,11.96798,12.39761,6.87391,0,12.27486-3.13009,12.3976-12.6431l.06138-16.81654h-4.35758Z" style="fill: #fff; stroke-width: 0px;"></path><path d="M39.82788,368.82458h0v-4.11208h-17.67578v29.09139h5.40093v-12.45897h10.92462v-3.80521h-10.92461v-9.02202c5.40093-.06136,8.59239.0614,12.27485.30689" style="fill: #fff; stroke-width: 0px;"></path></g><g><path d="M422.80319,253.07274c-19.27153,0-34.98332,15.71181-34.98332,34.98332s15.71179,35.0447,34.98332,35.0447,34.79921-15.71181,34.79921-35.0447c0-19.27151-15.52768-34.98332-34.79921-34.98332M422.80319,307.14346c-10.61774,0-19.08738-8.65377-19.08738-19.0874s8.46964-18.90326,19.08738-18.90326c10.43362,0,18.90326,8.46964,18.90326,18.90326.00004,10.43362-8.46964,19.0874-18.90326,19.0874" style="fill: #fff; stroke-width: 0px;"></path><path d="M294.65376,252.27488c-7.67178,0-15.52768,1.59573-21.84924,4.11208-5.09406-2.94596-10.004-4.11208-17.12341-4.11208-8.83789,0-17.85991,1.16611-27.74117,4.54169l-1.77985.61374v64.32022h17.49166v-52.72048c3.5597-1.16611,6.32154-1.59573,9.81988-1.59573,8.65377,0,11.23148,2.76184,11.23148,11.78386v42.47099h17.67578v-43.6371c0-3.92795-.18412-6.50567-.79786-8.83789,3.5597-1.16611,6.32154-1.77985,9.45163-1.77985,8.28552,0,12.02936,3.74383,12.02936,11.78386v42.47097h17.49168v-43.88259c0-8.65377-1.4116-13.74783-5.33957-18.1054-4.2962-4.66447-11.53835-7.42631-20.56037-7.42631" style="fill: #fff; stroke-width: 0px;"></path><path d="M364.80452,307.87994c-11.66111,0-18.35092-7.24215-18.35092-19.88525,0-12.94997,6.75117-20.37626,18.53503-20.37626,2.45497,0,4.48031.24549,6.4443.85924,0,0,3.6211,1.04337,6.81253,3.49834l7.42627-12.70448c-4.05069-3.37558-8.77651-4.84856-10.37226-5.21681-4.54171-1.35024-11.23148-1.59573-11.23148-1.59573-21.05136,0-35.16744,14.60706-35.16744,36.27219,0,20.86724,13.37958,34.3082,34.18546,34.3082,0,0,13.93196.61374,23.26086-8.04003l-8.71511-11.17008c-4.78718,3.00733-8.10141,4.05069-12.82723,4.05069" style="fill: #fff; stroke-width: 0px;"></path><path d="M136.61508,252.88862c-24.97932,0-36.57905,10.98599-36.57905,34.43096v34.43096h17.92128v-34.61509c0-11.78386,6.68979-19.0874,17.12341-19.0874,4.35758,0,7.67178.79786,10.004,1.35024l4.11207-15.52768c-6.93529-.98199-12.58172-.98199-12.58172-.98199" style="fill: #fff; stroke-width: 0px;"></path><path d="M215.97199,285.3556v36.39492h-23.99734c-16.50967,0-23.8132-1.16611-32.46697-6.87392-7.48766-5.09406-11.59973-14.72982-11.59973-27.31154,0-17.30755,11.41561-34.79921,36.57906-34.79921,20.43762-.06136,31.48498,11.35425,31.48498,32.58975M198.48032,287.31956c0-13.19546-5.09406-19.63976-15.34356-19.63976-10.43362,0-17.12341,7.67178-17.12341,19.27151,0,13.99332,6.68979,20.06939,21.60374,20.06939h10.80185v-19.70114h.06138Z" style="fill: #fff; stroke-width: 0px;"></path><path d="M90.27752,285.3556v36.39492h-23.81321c-16.50967,0-23.81321-1.16611-32.46698-6.87392-7.48766-5.09406-11.59973-14.72982-11.59973-27.31154,0-17.30755,11.41561-34.79921,36.57905-34.79921,20.499-.06136,31.30087,11.35425,31.30087,32.58975M72.17212,287.31956c0-13.37958-4.72582-19.63976-15.15944-19.63976s-17.12342,7.67178-17.12342,19.27151c0,13.99332,6.68979,20.06939,21.60374,20.06939h10.61775l.06137-19.70114h0Z" style="fill: #fff; stroke-width: 0px;"></path></g></g></g></svg> 