<?xml version="1.0" encoding="UTF-8"?> <svg xmlns="http://www.w3.org/2000/svg" id="uuid-3d0c1348-fead-467b-b2e5-cf773ac7fa06" data-name="Layer 2" width="480" height="283.46457" viewBox="0 0 480 283.46457"><g id="uuid-ca744848-7d7d-4fbf-821b-2c2f388a1345" data-name="uuid-b3c54bee-a0c2-471c-b048-5a53920b166b"><rect width="480" height="283.46457" style="fill: none;"></rect><g id="uuid-b91208da-3597-456f-a421-3f5e0c8bd783" data-name="layer1"><path id="uuid-91fb8aa1-31d0-4511-b5bd-e8456c5016ed" data-name="path36902" d="M387.74507,60.52484c-18.33712,0-35.36446,6.02504-49.24829,16.24151-13.88393-10.21647-30.91127-16.24151-49.24839-16.24151s-35.36457,6.02504-49.24839,16.24151c-13.88384-10.21647-30.64921-16.24151-49.24831-16.24151-18.33721,0-35.36457,6.02504-49.24839,16.24151-13.62185-10.21647-30.6493-16.24151-49.2484-16.24151-45.31899,0-82.25521,36.41237-82.25521,81.20739s36.93622,81.2075,82.25519,81.2075c18.33722,0,35.36457-6.02515,49.2484-16.24151,13.88384,10.21636,30.91118,16.24151,49.24839,16.24151s35.36447-6.02515,49.24831-16.24151c13.62196,10.21636,30.6493,16.24151,49.24839,16.24151,18.33712,0,35.36446-6.02515,49.24839-16.24151,13.62185,10.21636,30.6492,16.24151,49.24829,16.24151,45.31896,0,82.25527-36.41235,82.25527-81.20747s-36.93631-81.20739-82.25527-81.20739l.00003-.00003ZM338.49678,183.64578c-9.9545-11.2643-15.97954-25.93404-15.97954-41.91358s6.02504-30.6492,15.97954-41.91347c9.95439,11.26427,15.97943,25.93393,15.97943,41.91347s-6.02504,30.64928-15.97943,41.91358ZM240,183.64578c-9.95439-11.2643-15.97954-25.93404-15.97954-41.91358s6.02516-30.6492,15.97954-41.91347c9.9545,11.26427,15.97954,25.93393,15.97954,41.91347s-6.02504,30.64928-15.97954,41.91358ZM141.5033,183.64578c-9.95449-11.2643-15.97954-25.93404-15.97954-41.91358s6.02505-30.6492,15.97954-41.91347c9.95449,11.26427,15.97954,25.93393,15.97954,41.91347.26237,15.97954-6.02505,30.64928-15.97954,41.91358ZM27.02703,141.73223c0-35.36446,29.33942-64.18005,65.22784-64.18005,13.35998,0,25.93403,3.92946,36.41237,11.0023-12.57405,14.1458-20.17086,32.74491-20.17086,53.17774s7.59681,39.03195,20.17086,53.17774c-10.47834,6.81098-22.79042,11.0023-36.41237,11.0023-35.88842,0-65.22784-28.81548-65.22784-64.18002v-.00003ZM154.33929,194.90997c12.57405-14.1458,20.17086-32.74491,20.17086-53.17774s-7.59681-39.03192-20.17086-53.17774c10.47835-6.81098,22.79041-11.0023,36.41236-11.0023s25.93393,3.92946,36.41228,11.0023c-12.57406,14.1458-20.43285,32.74491-20.43285,53.17774s7.59692,39.03195,20.43285,53.17774c-10.47835,6.81098-22.79041,11.0023-36.41229,11.0023-13.35998,0-25.93402-4.19132-36.41236-11.0023h.00001ZM252.83599,194.90997c12.57405-14.1458,20.43283-32.74491,20.43283-53.17774s-7.59681-39.03192-20.43283-53.17774c10.47836-6.81098,22.79052-11.0023,36.41237-11.0023s25.93393,3.92946,36.41237,11.0023c-12.57405,14.1458-20.43283,32.74491-20.43283,53.17774s7.59681,39.03195,20.43283,53.17774c-10.47844,6.81098-22.79052,11.0023-36.41237,11.0023s-25.93404-4.19132-36.41237-11.0023ZM387.74504,205.91228c-13.35988,0-25.93393-3.92933-36.41237-11.0023,12.57405-14.1458,20.43283-32.74491,20.43283-53.17774s-7.59681-39.03192-20.43283-53.17774c10.47844-6.81098,22.79052-11.0023,36.41237-11.0023,35.88843,0,65.22793,28.81559,65.22793,64.18005s-29.3395,64.18005-65.22793,64.18005Z" style="fill: #fff;"></path></g></g></svg> 