<?xml version="1.0" encoding="UTF-8"?> <svg xmlns="http://www.w3.org/2000/svg" id="uuid-036f65ac-4baf-480d-981f-d03cf63db358" data-name="Layer 2" width="480" height="480" viewBox="0 0 480 480"><g id="uuid-4185ad41-b7ee-4347-9236-0725125fec55" data-name="Layer 1"><rect width="480" height="480" style="fill: none; stroke-width: 0px;"></rect><g><path d="M227.31245,246.05259v-32.25121h46.59585v32.25121h11.4878v-69.60475h-11.4878v27.45151h-46.59585v-27.45151h-11.5211v69.60475h11.5211ZM327.93065,233.74465c-3.70418,2.45433-8.70967,3.80708-14.09042,3.80708-6.85153,0-11.45756-2.9688-11.45756-7.38416,0-4.52128,3.14735-6.67298,11.22452-7.67771l11.11557-1.33157c4.42443-.53868,7.24494-1.08644,9.02441-2.30603l.00302,5.20825c0,3.75866-2.06393,7.1935-5.81955,9.68414M334.54612,238.66238c1.14393,5.45338,5.08115,6.24324,9.20598,6.24324,2.58142,0,5.55627-.22092,7.76245-.57802l.46-.07566-.00302-7.77152-.65671.1271c-.92907.17855-2.29092.36921-3.33497.36921-2.75394,0-3.8797-1.08947-3.88273-3.75866l-.00605-26.89769c-.00302-12.82543-15.20713-14.74107-24.26481-14.74107-16.58105,0-24.87614,5.66825-26.11993,17.83697l-.06052.58407h10.38321l.0212-.51144c.23908-6.33101,5.27179-9.40572,15.38567-9.40572,10.02915,0,14.30528,2.2909,14.30831,7.66863,0,3.913-2.72669,4.88444-8.45848,5.47759l-11.21545,1.14696c-16.28145,1.6917-22.62456,6.19785-22.62154,16.07567,0,4.69075,2.10025,15.60054,21.50787,15.60054,7.28428,0,16.86553-2.32117,21.58959-7.39021M397.30244,224.06052c0,3.75866-2.06393,7.1935-5.81955,9.68414-3.70418,2.45433-8.70967,3.80708-14.09042,3.80708-6.85153,0-11.45756-2.9688-11.45756-7.38416,0-4.52128,3.14735-6.67298,11.22452-7.67771l11.11861-1.33157c4.41839-.53868,7.24494-1.08644,9.02139-2.30603l.003,5.20825ZM414.86702,236.60753c-1.09912.21768-2.21486.3412-3.33499.36921-2.75394,0-3.8767-1.08947-3.8797-3.75866l-.0091-26.89769c-.00305-12.82543-15.2041-14.74107-24.26481-14.74107-16.57803,0-24.87614,5.66825-26.11993,17.83697l-.06052.5871h10.38321l.0212-.51447c.23908-6.33101,5.27179-9.40572,15.38567-9.40572,10.02915,0,14.30831,2.2909,14.31135,7.67165,0,3.90997-2.72669,4.88141-8.45848,5.47759l-11.21847,1.14394c-16.28145,1.6917-22.62456,6.19785-22.62154,16.07567,0,4.69075,2.10025,15.60054,21.50787,15.60054,7.28428,0,16.86553-2.32117,21.58959-7.39021,1.14396,5.45338,5.08115,6.24324,9.20901,6.24324,2.57842,0,5.55327-.22092,7.7594-.57802l.45997-.07566-.00305-7.77152-.65669.1271ZM418.55306,227.5347l.03934.56894c.86551,11.91149,9.59334,17.94895,25.95046,17.94895,7.88048,0,14.08439-1.43447,18.44221-4.25799,4.65747-3.02024,7.01798-7.51126,7.01493-13.34595,0-7.73823-5.65915-12.11728-17.81277-13.78477l-13.46095-1.81275c-6.55495-.92605-7.79875-2.70853-7.79875-5.67127,0-2.46038,1.33158-4.3276,3.95839-5.55022,2.14869-.99868,5.19918-1.54643,8.59466-1.54643,10.21979,0,14.12069,4.5697,14.3658,8.84283l.0242.50237h10.56178l-.05144-.57802c-.98354-11.13676-9.79006-17.27106-24.80655-17.27106-6.98168,0-12.81031,1.51012-16.85948,4.36392-4.13996,2.91735-6.32494,7.16626-6.32494,12.28675,0,8.23152,6.99678,12.85267,13.92702,13.78174l15.64593,2.09722c7.4689,1.03499,8.92756,3.0384,8.92756,6.15246.00305,1.34065-.47512,3.26234-2.75694,4.79062-2.48158,1.65841-6.47627,2.49972-11.88121,2.49972-11.14283,0-15.11632-4.9026-15.11937-9.48441v-.53263h-10.57988Z" style="fill: #e6002d; fill-rule: evenodd; stroke-width: 0px;"></path><path d="M249.07755,258.15776h-33.2862v45.3944h7.23284v-19.78288h24.83982l-.00605-6.82127h-24.83377v-11.969h26.05639l-.00302-6.82126ZM269.92267,258.15776l-.04237.51447c-.44185,5.04786-4.69379,7.6081-12.64991,7.6081h-2.09722l.00302,5.95574h13.28543l.0121,31.31608h7.8835l-.02422-45.3944h-6.37033ZM336.84309,264.97903v-6.82126h-39.34181l.00302,6.82126h15.997v38.57313h7.36599v-38.57314h15.9758ZM352.26811,276.13698c5.3868,0,9.2877,2.8538,10.31967,7.48705h-21.04788c1.0471-4.50312,5.27787-7.48705,10.7282-7.48705M352.56468,270.26293c-5.87404,0-10.74335,1.71289-14.07227,4.95707-3.01722,2.93551-4.67864,7.08758-4.67562,11.68754.00605,10.11085,7.36902,16.64461,18.76301,16.64461,5.9618,0,13.47609-2.763,16.67791-10.5194l.29053-.71118h-7.49007l-.14223.30262c-2.17893,4.56062-7.46587,5.0539-9.63571,5.0539-4.84811,0-10.21979-2.98393-10.97334-8.52507h28.82545v-1.26499c-.00907-12.99794-9.07888-17.62514-17.56763-17.62514M398.25871,290.07303c0,2.20314-1.19538,4.22168-3.36524,5.68337-2.16684,1.4617-5.09627,2.26367-8.24664,2.26367-3.94629,0-6.59732-1.70985-6.59732-4.26102-.00302-2.63287,1.75526-3.84037,6.47929-4.43654l6.59732-.80499c2.41195-.2996,4.03707-.60526,5.12959-1.22867v2.78418h.003ZM408.84164,297.45718c-.63785.13008-1.28605.203-1.93683.21789-1.51315,0-2.1033-.58105-2.1063-2.06998v-16.24212c0-7.91981-9.15454-9.10006-14.6049-9.10006-9.95953,0-14.9499,3.48024-15.69435,10.94913l-.06052.56894h6.57613l.01815-.49934c.13618-3.69208,3.05656-5.48969,8.92756-5.48969,5.81048,0,8.29204,1.32854,8.29204,4.43654,0,2.2213-1.49195,2.75393-4.83904,3.108l-6.65784.69605c-9.65993,1.01987-13.60017,3.88879-13.59712,9.90203,0,2.89314,1.27104,9.61756,12.96463,9.61756,4.23682,0,9.77494-1.33763,12.69832-4.258.81406,3.11405,3.24421,3.568,5.57442,3.568,1.53434,0,3.31075-.13618,4.63932-.35408l.43883-.07263v-5.10536l-.63249.12408v.00302ZM470,281.79309c-.00605-9.10309-7.79875-11.53018-12.40177-11.53018-5.37165,0-9.38758,1.71894-12.57729,5.39891-2.39985-3.48932-6.15852-5.39891-10.66466-5.39891-3.01419,0-8.33441.65973-11.79347,4.82694v-3.75866h-7.03612v32.22094h7.04822l-.0091-18.48763c0-2.70248.99868-4.95707,2.89312-6.51863,1.73711-1.43144,4.1551-2.21828,6.81521-2.21828,3.18062,0,6.97258,1.19539,6.97558,6.8939l.0091,20.33063h7.03312v-19.38038c0-2.56025.95629-4.56062,2.85987-5.94062,1.69172-1.22867,4.12181-1.90657,6.83941-1.90657,3.18062,0,6.97258,1.19841,6.97558,6.89692l.0121,20.33063h7.02102l.00009-21.75902Z" style="fill: #fff; fill-rule: evenodd; stroke-width: 0px;"></path><path d="M104.66889,298.33786c-15.69738,0-29.86043-6.32798-40.28602-16.59922h16.1937s46.53833-82.92346,46.70176-83.25333c.22697-.33895.11197-.55987-.21184-.55987h-18.99302c-.38434,0-.44184.115-.54776.27842-.11197.16645-26.23796,46.18124-26.23796,46.18124h-34.13659c-.11113-1.45902-.16464-2.92186-.16039-4.3851,0-32.19371,25.79008-58.34088,57.68115-58.34088,16.24212,0,30.95293,6.83034,41.43601,17.82184-4.55155,7.77152-24.97297,42.84626-27.7148,47.95465-1.59183-3.72234-8.94875-2.99603-12.73464-3.05656-1.64933,2.77511-9.38151,17.54342-9.38151,17.54342,0,0,4.27313-.05448,8.11652,0,3.73444.06053,4.17628,3.99471,2.69341,6.49443-1.48591,2.49972-7.58087,13.3157-7.58087,13.3157h19.59827s24.0439-42.45889,37.70761-66.59964c3.66277,7.77719,5.55328,16.27053,5.53509,24.86705,0,32.19674-25.84455,58.33483-57.68115,58.33483M51.21544,261.9255h19.91907l-9.60848,16.81711c-4.33546-5.00319-7.81971-10.68452-10.31361-16.81711M104.66584,164.34268c-41.32706,0-74.80089,33.86422-74.80089,75.66036,0,1.49499.04842,2.9355.10592,4.38207h-9.76887c-.54776,0-.82315.33289-1.04407.72631-.16342.38737-8.83678,15.81844-9.0577,16.2058-.16342.38736-.16342.60829.27842.60829h22.66694c9.27256,31.08003,37.81657,53.73183,71.62026,53.73183,41.33312,0,74.80996-33.86422,74.80996-75.65431,0-41.79917-33.47686-75.66036-74.80695-75.66036" style="fill: #e6002d; fill-rule: evenodd; stroke-width: 0px;"></path><path d="M279.2951,260.98734c.12105,0,.24211-.00606.35104-.01513.10097-.005.2003-.02753.29355-.06658.08342-.03722.15398-.09829.20277-.17553.05657-.09933.08384-.21265.07869-.32684,0-.12105-.02422-.21184-.06961-.28447-.04304-.06904-.1036-.12542-.17552-.16342-.07876-.03948-.16372-.06508-.25118-.07566-.09222-.01349-.18524-.02057-.27843-.02118h-.72328v1.1288h.575-.00302ZM279.53721,259.41367c.41763,0,.7263.08474.92907.25118s.30262.42368.30262.76263c0,.31776-.09079.55078-.26631.69908-.18769.15383-.41784.24674-.65974.26631l1.00473,1.56156h-.5871l-.95631-1.52526h-.58105v1.52526h-.54473v-3.54076h1.35882ZM277.05262,262.20391c.4781,1.263,1.88956,1.8993,3.15257,1.42118.34181-.12938.65025-.33374.90266-.59803.22694-.2379.40574-.5174.52659-.82315.12777-.32888.19148-.67916.18762-1.03196,0-.36316-.06052-.69908-.18762-1.01381-.24333-.60547-.71354-1.09196-1.31038-1.35578-.3062-.13401-.6372-.20206-.97144-.19974-1.01498-.0084-1.9299.61037-2.29999,1.55551-.12687.3228-.19057.66698-.18762,1.01381,0,.37224.06052.71723.18762,1.03196ZM276.55933,259.97958c.65858-1.52746,2.42652-2.23706,3.95839-1.5888,1.12392.46608,1.85537,1.56445,1.85209,2.78117.01108.8166-.31131,1.60241-.89275,2.17591-.56653.55669-1.33021.86674-2.12447.86249-.79885.00495-1.56752-.3049-2.13959-.86249-.8885-.8822-1.1477-2.21775-.65369-3.36827h.00002Z" style="fill: #fff; fill-rule: evenodd; stroke-width: 0px;"></path></g></g></svg> 