<?xml version="1.0" encoding="UTF-8"?> <svg xmlns="http://www.w3.org/2000/svg" xmlns:xlink="http://www.w3.org/1999/xlink" id="uuid-b6964d93-797b-4532-bd41-82fdf05a487d" data-name="Layer 2" width="480" height="480" viewBox="0 0 480 480"><defs><linearGradient id="uuid-f17c108c-26b0-4911-94b9-207a1e8db90a" x1="2.10946" y1="479.85552" x2="3.39894" y2="479.85552" gradientTransform="translate(-33705.41926 40115.71161) rotate(39.94617) scale(108.91674 -108.91674)" gradientUnits="userSpaceOnUse"><stop offset="0" stop-color="#fff"></stop><stop offset=".1" stop-color="#e7e8e6"></stop><stop offset=".1" stop-color="#cdd0d0"></stop><stop offset=".2" stop-color="#b5bbbd"></stop><stop offset=".2" stop-color="#a5acaf"></stop><stop offset=".3" stop-color="#9ba3a7"></stop><stop offset=".3" stop-color="#98a0a4"></stop><stop offset=".4" stop-color="#828a8f"></stop><stop offset=".5" stop-color="#667075"></stop><stop offset=".6" stop-color="#535c63"></stop><stop offset=".7" stop-color="#475158"></stop><stop offset=".8" stop-color="#434d54"></stop><stop offset="1" stop-color="#475157"></stop></linearGradient><linearGradient id="uuid-142d398d-4632-4f0b-b864-9621388bf57e" x1="2.19221" y1="479.78297" x2="3.48158" y2="479.78297" gradientTransform="translate(-31689.39561 37611.73146) rotate(40.03026) scale(102.23521 -102.23521)" gradientUnits="userSpaceOnUse"><stop offset="0" stop-color="#0b1f2a"></stop><stop offset=".2" stop-color="#333f47"></stop><stop offset=".5" stop-color="#777f84"></stop><stop offset=".5" stop-color="#81898d"></stop><stop offset=".7" stop-color="#b3b8b8"></stop><stop offset=".8" stop-color="#d2d5d3"></stop><stop offset=".8" stop-color="#dee0dd"></stop><stop offset="1" stop-color="#fbfbfb"></stop></linearGradient><linearGradient id="uuid-4c4a5a9d-deb5-42a0-bf6a-ac23f16890ec" x1="-.76496" y1="481.35433" x2=".52441" y2="481.35433" gradientTransform="translate(50486.47538 -18110.94747) rotate(-109.99075) scale(111.43832 -111.43832)" gradientUnits="userSpaceOnUse"><stop offset="0" stop-color="#e1e3e1" stop-opacity=".4"></stop><stop offset=".1" stop-color="#c1c5c4" stop-opacity=".4"></stop><stop offset=".3" stop-color="#9ba1a2" stop-opacity=".4"></stop><stop offset=".5" stop-color="#7d8487" stop-opacity=".4"></stop><stop offset=".7" stop-color="#687074" stop-opacity="0"></stop><stop offset=".8" stop-color="#5b6469" stop-opacity="0"></stop><stop offset="1" stop-color="#576065" stop-opacity="0"></stop></linearGradient><linearGradient id="uuid-97895fe8-ad82-4728-862f-b35d2272448a" x1="2.63689" y1="480.26826" x2="3.9262" y2="480.26826" gradientTransform="translate(-40011.46777 23026.23001) rotate(59.99761) scale(96.01898 -96.01898)" xlink:href="#uuid-4c4a5a9d-deb5-42a0-bf6a-ac23f16890ec"></linearGradient><linearGradient id="uuid-54d3b675-4a27-4ce7-ab39-45f6c1a61713" x1="26.22921" y1="502.67319" x2="27.51858" y2="502.67319" gradientTransform="translate(-2261.10585 -1357.74275) rotate(121.26373) scale(5.69835 -5.69835)" gradientUnits="userSpaceOnUse"><stop offset="0" stop-color="#27343c"></stop><stop offset="1" stop-color="#00111e" stop-opacity="0"></stop></linearGradient><linearGradient id="uuid-2fb78eff-175d-4be2-b5f9-910a8071529f" x1="-17.37723" y1="488.7976" x2="-16.08786" y2="488.7976" gradientTransform="translate(3840.54091 -2283.3838) rotate(-121.89079) scale(9.21988 -9.21988)" gradientUnits="userSpaceOnUse"><stop offset="0" stop-color="#02131f"></stop><stop offset=".1" stop-color="#02131f"></stop><stop offset=".9" stop-color="#02131f" stop-opacity="0"></stop><stop offset="1" stop-color="#02131f" stop-opacity="0"></stop></linearGradient><linearGradient id="uuid-5d313cbf-e53e-4c60-a6d7-31f50af6038e" x1="4.5818" y1="505.3445" x2="5.87117" y2="505.3445" gradientTransform="translate(-939.70581 -3452.04692) rotate(164.0546) scale(7.59869 -7.59869)" gradientUnits="userSpaceOnUse"><stop offset="0" stop-color="#02131f" stop-opacity=".8"></stop><stop offset=".2" stop-color="#02131f" stop-opacity=".8"></stop><stop offset=".9" stop-color="#02131f" stop-opacity="0"></stop><stop offset="1" stop-color="#02131f" stop-opacity="0"></stop></linearGradient><linearGradient id="uuid-87515e94-1aed-46c6-9366-fe43bd7df4aa" x1="-63.71256" y1="499.59085" x2="-62.42318" y2="499.59085" gradientTransform="translate(1293.7666 -425.49112) rotate(-111.80141) scale(2.81041 -2.81041)" gradientUnits="userSpaceOnUse"><stop offset="0" stop-color="#02131f" stop-opacity=".8"></stop><stop offset=".1" stop-color="#02131f" stop-opacity=".8"></stop><stop offset="1" stop-color="#02131f" stop-opacity="0"></stop></linearGradient><linearGradient id="uuid-f6ad8215-1221-4b84-9ee6-5d3ced2718b5" x1=".0298" y1="510.84648" x2="1.31917" y2="510.84648" gradientTransform="translate(-265.43684 -2814.65774) rotate(173.29016) scale(5.95543 -5.95543)" gradientUnits="userSpaceOnUse"><stop offset="0" stop-color="#02131f"></stop><stop offset=".3" stop-color="#02131f"></stop><stop offset=".8" stop-color="#02131f" stop-opacity="0"></stop><stop offset="1" stop-color="#02131f" stop-opacity="0"></stop></linearGradient><linearGradient id="uuid-3ed937ef-5bd4-4736-99a8-d720e0a6d9ae" x1=".10882" y1="525.07982" x2="1.3982" y2="525.07982" gradientTransform="translate(-183.50168 -1894.23529) rotate(172.56859) scale(4.03497 -4.03497)" gradientUnits="userSpaceOnUse"><stop offset="0" stop-color="#27343c"></stop><stop offset=".4" stop-color="#27343c"></stop><stop offset="1" stop-color="#3b474e" stop-opacity="0"></stop></linearGradient><linearGradient id="uuid-4530cd9a-ef38-439b-a3cc-1e5038d4e932" x1="2.76828" y1="478.23811" x2="4.05766" y2="478.23811" gradientTransform="translate(-13519.44912 23375.54104) rotate(29.98757) scale(56.03618 -56.03618)" gradientUnits="userSpaceOnUse"><stop offset="0" stop-color="#24303a" stop-opacity="0"></stop><stop offset="0" stop-color="#25323b" stop-opacity="0"></stop><stop offset=".1" stop-color="#27343c"></stop><stop offset="1" stop-color="#27343c"></stop></linearGradient><linearGradient id="uuid-df0e43b6-83d1-426f-b8d0-22a747bf982b" x1="-21.27432" y1="478.05648" x2="-19.98494" y2="478.05648" gradientTransform="translate(4073.47351 74.46992) rotate(-90) scale(8.35008 -8.35008)" gradientUnits="userSpaceOnUse"><stop offset="0" stop-color="#a5abaf"></stop><stop offset=".3" stop-color="#a5abaf"></stop><stop offset="1" stop-color="#a5abaf" stop-opacity="0"></stop></linearGradient><linearGradient id="uuid-3ddabb52-0f51-4419-ae50-fb1ce1a7be9e" x1="2.58623" y1="481.3061" x2="3.8756" y2="481.3061" gradientTransform="translate(-50957.20521 -101.05571) rotate(90) scale(106.1156 -106.1156)" gradientUnits="userSpaceOnUse"><stop offset="0" stop-color="#dee0dd"></stop><stop offset="0" stop-color="#c5c9c7"></stop><stop offset="0" stop-color="#9ea4a5"></stop><stop offset="0" stop-color="#82898c"></stop><stop offset="0" stop-color="#71797d"></stop><stop offset="0" stop-color="#6b7378"></stop><stop offset=".2" stop-color="#333f47"></stop><stop offset=".5" stop-color="#27343c"></stop><stop offset=".8" stop-color="#333f47"></stop><stop offset="1" stop-color="#434d54"></stop></linearGradient><linearGradient id="uuid-dd4b0f6c-ed50-46e7-93c4-ca0281e45f0e" x1="3.88814" y1="484.05507" x2="5.17751" y2="484.05507" gradientTransform="translate(-16443.01982 -11315.38674) rotate(124.28688) scale(41.68838 -41.68838)" gradientUnits="userSpaceOnUse"><stop offset="0" stop-color="#27343c"></stop><stop offset=".7" stop-color="#27343c"></stop><stop offset=".7" stop-color="#2b373f"></stop><stop offset=".7" stop-color="#36424a"></stop><stop offset=".7" stop-color="#49545b"></stop><stop offset=".8" stop-color="#646d73" stop-opacity="0"></stop><stop offset=".8" stop-color="#868d92" stop-opacity="0"></stop><stop offset=".8" stop-color="#b0b5b8" stop-opacity="0"></stop><stop offset=".8" stop-color="#e1e3e4" stop-opacity="0"></stop><stop offset=".8" stop-color="#fff" stop-opacity="0"></stop><stop offset="1" stop-color="#fff" stop-opacity="0"></stop></linearGradient></defs><g id="uuid-0745a5ce-eba6-4816-8842-b04f871c6ef1" data-name="Layer 1"><rect width="480" height="480" style="fill: none; stroke-width: 0px;"></rect><g><g><path id="uuid-e7a98604-842b-4311-838a-c3722b37b631" data-name="outer" d="M151.98141,240c0,38.80377-31.40189,70.20566-70.20566,70.20566S11.5701,278.80377,11.5701,240s31.40189-70.20566,70.20566-70.20566,70.20566,31.40189,70.20566,70.20566ZM81.77575,174.05603c-36.56077,0-65.94397,29.3832-65.94397,65.94397s29.6075,65.94398,65.94397,65.94398c36.56077,0,65.94398-29.6075,65.94398-65.94398,0-36.56077-29.3832-65.94397-65.94398-65.94397Z" style="fill: url(#uuid-f17c108c-26b0-4911-94b9-207a1e8db90a); stroke-width: 0px;"></path><path d="M81.77575,174.05603c-36.56077,0-65.94397,29.3832-65.94397,65.94397s29.6075,65.94398,65.94397,65.94398c36.56077,0,65.94398-29.6075,65.94398-65.94398,0-36.56077-29.3832-65.94397-65.94398-65.94397ZM81.77575,301.68229c-34.09348,0-61.68229-27.5888-61.68229-61.68229s27.5888-61.68229,61.68229-61.68229,61.68229,27.5888,61.68229,61.68229-27.5888,61.68229-61.68229,61.68229Z" style="fill: url(#uuid-142d398d-4632-4f0b-b864-9621388bf57e); stroke-width: 0px;"></path><path d="M81.77575,310.20566c38.80377,0,70.20566-31.40189,70.20566-70.20566s-31.40189-70.20566-70.20566-70.20566S11.5701,201.19623,11.5701,240s31.40189,70.20566,70.20566,70.20566ZM81.77575,168.22425c39.47666,0,71.77575,32.29909,71.77575,71.77575s-32.29909,71.77575-71.77575,71.77575S10,279.47666,10,240s32.29909-71.77575,71.77575-71.77575Z" style="fill: url(#uuid-4c4a5a9d-deb5-42a0-bf6a-ac23f16890ec); stroke-width: 0px;"></path><path d="M14.93458,240.2243c0-36.78507,29.8318-67.06547,66.84117-67.06547s66.84117,30.0561,66.84117,67.06547c0,36.78508-29.8318,66.61687-66.84117,66.61687S14.93458,277.00937,14.93458,240.2243ZM35.79441,194.01865c-11.88786,11.88786-19.28973,28.2617-19.28973,46.20564s7.40188,34.31778,19.06543,45.98134c11.88786,11.66356,28.2617,19.06543,46.20564,19.06543s34.31778-7.17758,45.98134-19.06543c11.88786-11.66356,19.06543-28.0374,19.06543-45.98134s-7.40187-34.31778-19.06543-46.20564c-11.66356-11.88786-28.0374-19.28973-45.98134-19.28973s-34.31778,7.40188-45.98134,19.28973Z" style="fill: #fff; stroke-width: 0px;"></path><path d="M81.77575,301.90658c-16.59814,0-32.07479-6.50468-43.73835-18.16823-11.66356-11.66355-18.16824-27.1402-18.16824-43.73835s6.50468-32.07479,18.16824-43.73835c11.66356-11.66356,27.14021-18.16824,43.73835-18.16824s32.07479,6.50468,43.73835,18.16824c11.66356,11.66356,18.16823,27.14021,18.16823,43.73835s-6.50468,32.07479-18.16823,43.73835-27.1402,18.16823-43.73835,18.16823ZM81.77575,300.11219c15.92524,0,31.1776-6.28038,42.39256-17.49534,11.43926-11.43926,17.49534-26.46731,17.49534-42.39256s-6.28038-31.17759-17.49534-42.39255c-11.43926-11.43926-26.46731-17.49534-42.39256-17.49534s-31.17759,6.28038-42.39255,17.49534c-11.43926,10.99066-17.71964,26.24301-17.71964,42.16825s6.28038,31.17759,17.49534,42.39255c11.43926,11.43926,26.69161,17.71964,42.61685,17.71964Z" style="fill: url(#uuid-97895fe8-ad82-4728-862f-b35d2272448a); stroke-width: 0px;"></path><path d="M136.28047,269.1589c-1.1215-.8972-44.41125-35.21498-44.41125-35.21498l-10.09347-57.6449c-.6729.2243-1.5701.8972-2.01869,1.79439l-7.17758,56.07481-44.63555,34.31778s-.8972,1.1215-1.3458,1.79439c-.2243.4486-.2243,1.1215-.2243,1.79439l55.17761-22.65422,55.17761,22.65422c.4486-1.1215,0-2.24299-.4486-2.91588Z" style="fill: #fff; stroke-width: 0px;"></path><path d="M82.22435,241.79439l-.4486,10.31776,50.69162,20.41124c1.79439.8972,3.14019.4486,4.48598-.4486l-54.05611-30.5047c-.2243-.2243-.6729,0-.6729.2243Z" style="fill: #565f64; stroke-width: 0px;"></path><path d="M82.22435,241.79439s2.91589,5.15888,6.28038,8.74767c4.71028,5.15888,10.99067,8.74767,10.99067,8.74767l32.97199,13.23366c1.79439.8972,3.14019.4486,4.48598-.4486l-54.05612-30.50469c-.2243-.2243-.6729,0-.6729.22429Z" style="fill: url(#uuid-54d3b675-4a27-4ce7-ab39-45f6c1a61713); stroke-width: 0px;"></path><path d="M136.72907,270.0561c0-.2243-.2243-.4486-.4486-.8972l-46.20565-33.86918-6.28038,4.03738s.4486.2243.6729,0c.6729-.2243,2.0187-.4486,3.36449,0,1.1215.4486,48.89723,30.9533,48.89723,30.9533v-.2243Z" style="fill: rgba(164, 170, 174, .6); stroke-width: 0px;"></path><path d="M135.15897,268.0374l-43.06545-34.09348-2.0187,1.3458,46.20564,34.09348c-.2243-.4486-.6729-.8972-1.12149-1.34579Z" style="fill: #333e46; stroke-width: 0px;"></path><path d="M82.89725,238.4299l-.2243.2243s0,.4486.4486.2243c.2243-.2243,6.72898-3.58879,8.97197-4.93458l-7.85047-53.83182c-.2243-2.01869-1.1215-2.91589-2.69159-3.58879l.8972,62.35518.44859-.4486Z" style="fill: #565f64; stroke-width: 0px;"></path><path d="M79.08416,180.11211v2.91589l-4.93458,49.57013c0,.6729.2243,1.3458.8972,1.79439l2.91589,2.24299,2.01869-54.72901.2243-4.26169c-.6729.4486-.8972,1.3458-1.12149,2.46729Z" style="fill: rgba(164, 170, 174, .6); stroke-width: 0px;"></path><path d="M76.39257,237.53271l-2.69159-2.24299-45.53274,32.97198s-1.3458.8972-1.57009,1.79439l1.57009-.8972,47.77573-30.0561c.8972-.4486,1.1215-.8972.4486-1.57009Z" style="fill: rgba(164, 170, 174, .6); stroke-width: 0px;"></path><path d="M81.10286,241.79439c0-.2243-.2243-.4486-.4486-.2243l-54.28042,30.729c1.3458.8972,2.69159,1.1215,4.48598.4486l50.69163-20.41124-.4486-10.54207Z" style="fill: #565f64; stroke-width: 0px;"></path><path d="M82.67295,238.6542l.2243-.2243-.2243.2243s0,.2243.2243.2243h.2243c.2243-.2243,6.72898-3.58879,8.97197-4.93458l-.8972-6.50468-6.95327-47.32714c0-.8972-.2243-1.57009-.6729-2.01869,0,0,3.36449,45.30845,3.36449,50.24303,0,6.50468-4.26169,10.31777-4.26168,10.31777Z" style="fill: url(#uuid-2fb78eff-175d-4be2-b5f9-910a8071529f); stroke-width: 0px;"></path><path d="M81.10286,241.79439c0-.2243-.2243-.4486-.4486-.2243l-54.28042,30.729c1.3458.8972,2.69159,1.1215,4.48598.4486l50.69163-20.41124-.4486-10.54207Z" style="fill: url(#uuid-5d313cbf-e53e-4c60-a6d7-31f50af6038e); stroke-width: 0px;"></path><path d="M30.85983,272.52339l50.69163-20.41123-.4486-9.86917c-.8972,2.69159-2.46729,5.60748-6.72898,7.85047-3.14019,1.79439-33.19629,16.59815-43.96265,21.75703-.6729.4486-1.57009.6729-2.01869.8972.8972.4486,1.57009.2243,2.46729-.2243Z" style="fill: url(#uuid-87515e94-1aed-46c6-9366-fe43bd7df4aa); stroke-width: 0px;"></path><path d="M82.89725,238.4299l-.2243.2243s0,.4486.4486.2243c.2243-.2243,6.72898-3.58879,8.97197-4.93458l-7.85047-53.83182c-.2243-2.01869-1.1215-2.91589-2.69159-3.58879l.8972,62.35518.44859-.4486Z" style="fill: url(#uuid-f6ad8215-1221-4b84-9ee6-5d3ced2718b5); stroke-width: 0px;"></path><path d="M82.89725,238.4299l-.2243.2243s0,.4486.4486.2243c.2243-.2243,6.72898-3.58879,8.97197-4.93458l-7.85047-53.83182c-.2243-2.01869-1.1215-2.91589-2.69159-3.58879l.8972,62.35518.44859-.4486Z" style="fill: url(#uuid-3ed937ef-5bd4-4736-99a8-d720e0a6d9ae); stroke-width: 0px;"></path><path d="M21.43926,267.81311c-1.57009-3.58878-10.54206-21.08413-.6729-54.72901h-3.81309c-2.01869,6.72898-3.58879,10.76637-4.48598,16.82244,0,0-.4486,2.24299-.6729,4.71028s-.2243,3.81309-.2243,5.38318c0,13.45795,3.36449,21.30843,3.36449,21.30843,3.58879,11.21496,9.86917,21.30843,18.39254,28.9346,7.40188,6.50468,18.84113,11.43926,28.2617,13.23366-1.5701-.2243-28.486-11.66356-40.14956-35.66358Z" style="fill: url(#uuid-4530cd9a-ef38-439b-a3cc-1e5038d4e932); stroke-width: 0px;"></path><path d="M82.67295,241.34579h-2.01869c.2243,0,.4486,0,.4486.2243l.4486,10.31776h.2243l.4486-10.31776c0-.2243.2243-.4486.44859-.2243Z" style="fill: url(#uuid-df0e43b6-83d1-426f-b8d0-22a747bf982b); stroke-width: 0px;"></path><path d="M104.20568,173.38313c23.55142,8.97197,45.75705,33.64488,45.75705,64.82248,0,37.68227-30.0561,68.41126-68.18697,68.41126v3.58878c38.13087,0,70.20566-31.40189,70.20566-70.20566,0-30.95329-19.73833-56.972-47.77573-66.61686Z" style="fill: url(#uuid-3ddabb52-0f51-4419-ae50-fb1ce1a7be9e); stroke-width: 0px;"></path><path d="M141.88795,213.53269c-15.70095-36.11218-51.14022-38.13087-53.15892-38.35517h-.2243c27.1402,4.93458,44.41125,22.65422,50.46733,41.27106v.2243c2.69159,7.17758,4.03738,14.80375,4.26169,23.10282.2243,7.85047-1.5701,16.59815-4.93458,24.67292-.2243,1.1215-.4486,2.46729-.6729,2.46729h3.58878c10.76636-20.18693,6.05608-40.59816.6729-53.38322Z" style="fill: url(#uuid-dd4b0f6c-ed50-46e7-93c4-ca0281e45f0e); stroke-width: 0px;"></path><path d="M14.93458,240.2243c0-36.78507,29.8318-67.06547,66.84117-67.06547s66.84117,30.0561,66.84117,67.06547c0,36.78508-29.8318,66.61687-66.84117,66.61687S14.93458,277.00937,14.93458,240.2243ZM35.79441,194.01865c-11.88786,11.88786-19.28973,28.2617-19.28973,46.20564s7.40188,34.31778,19.06543,45.98134c11.88786,11.66356,28.2617,19.06543,46.20564,19.06543s34.31778-7.17758,45.98134-19.06543c11.88786-11.66356,19.06543-28.0374,19.06543-45.98134s-7.40187-34.31778-19.06543-46.20564c-11.66356-11.88786-28.0374-19.28973-45.98134-19.28973s-34.31778,7.40188-45.98134,19.28973Z" style="fill: #fbfbfb; stroke-width: 0px;"></path><path d="M27.71964,268.7103l45.75704-32.97199c2.46729,1.3458,6.50468,3.14019,6.95328,3.14019.4486.2243.4486-.2243.4486-.2243l-5.60748-4.71028c-.6729-.4486-.8972-1.1215-.8972-1.79439l5.38318-54.05612c-.2243.2243-.2243.6729-.4486.8972-.2243.4486-.2243.6729-.2243,1.1215l-7.85047,54.05611-43.06545,33.86919c-.2243.2243-.4486.4486-.44859.6729Z" style="fill: #333f47; stroke-width: 0px;"></path></g><path d="M422.13785,220.12303h45.96612c.74782,0,1.36673-.6189,1.36673-1.36674v-11.47541c0-.74784-.61891-1.36673-1.36673-1.36673h-22.58979c-.74782,0-1.36673.6189-1.36673,1.36673v2.07589c0,.74784.61891,1.36673,1.36673,1.36673h14.84069c.24498,0,.45129.2063.45129.45128v2.21772c0,.24498-.2063.45128-.45129.45128h-29.53953c-.74782,0-1.36673-.6189-1.36673-1.36674v-8.50986c0-.74784.61891-1.36673,1.36673-1.36673h37.30154c.74782,0,1.36673-.6189,1.36673-1.36673v-3.12028c0-.74784-.61891-1.36673-1.36673-1.36673h-45.96612c-.74782,0-1.36673.6189-1.36673,1.36673v20.62996c-.01291.76073.60601,1.37963,1.35383,1.37963ZM409.2699,220.12303h5.93112c.74782,0,1.36673-.6189,1.36673-1.36674v-20.62996c0-.74784-.61891-1.36673-1.36673-1.36673h-6.66607c-.27076,0-.51574.06447-.74782.21919l-16.25897,10.61153c-.46416.29656-1.03148.29656-1.49568,0l-16.25897-10.61153c-.23208-.15473-.46416-.21919-.74782-.21919h-6.66607c-.74782,0-1.36673.6189-1.36673,1.36673v20.62996c0,.74784.61891,1.36674,1.36673,1.36674h5.93112c.74782,0,1.36673-.6189,1.36673-1.36674v-12.42955c0-.23209.11604-.43839.32234-.55443s.45129-.10315.64469.01289l12.58429,7.89096c.23208.14183.45129.2063.72205.2063h5.64746c.27076,0,.50287-.06447.72205-.2063l12.58429-7.89096c.2063-.12894.43838-.12894.64469-.01289s.33525.32234.33525.55443v12.42955c.03868.74784.65759,1.36674,1.40541,1.36674h-.00008ZM359.43566,220.12303h-5.93112c-.74782,0-1.36673-.6189-1.36673-1.36674v-3.63603c0-.24498-.2063-.45128-.45129-.45128h-31.18992c-.43838,0-.81231.18051-1.08307.52864l-3.26211,4.21625c-.36102.46417-.86388.70915-1.44409.70915h-8.14884c-.24498,0-.46417-.12894-.56733-.36102-.11604-.21919-.09027-.47707.06447-.67047l16.85209-21.80329c.27078-.34813.64469-.52864,1.08307-.52864h35.44484c.74782,0,1.36673.6189,1.36673,1.36673v20.62996c0,.74784-.60601,1.36674-1.36673,1.36674h.00004ZM352.13781,208.19634v-5.11881c0-.24498-.2063-.45128-.45129-.45128h-22.09984c-.29655,0-.54153.12894-.72205.34813l-3.93259,5.09302c-.09027.11604-.10315.25788-.03868.38681s.18051.2063.32234.2063h26.47082c.24498-.01289.45129-.21919.45129-.46417ZM249.77453,220.12303h-19.55978c-.24498,0-.46417-.12894-.56733-.36102-.11604-.21919-.09027-.47707.06447-.67047l16.85209-21.80329c.27078-.34813.64469-.52864,1.08307-.52864h19.36638c.28366,0,.52865.15473.65757.4126s.09027.54154-.07736.77362l-16.73605,21.64856c-.27078.34813-.64469.52864-1.08307.52864ZM263.99631,220.12303h-9.25769c-.24498,0-.46417-.12894-.56733-.36102-.11604-.21919-.09027-.47707.06447-.67047l16.85211-21.80329c.27078-.34813.64469-.52864,1.08307-.52864h9.07717c.28366,0,.52865.15473.65757.4126s.09027.54154-.07736.77362l-16.73605,21.64856c-.28366.34813-.65757.52864-1.09597.52864ZM276.7482,220.12303h-7.15602c-.24498,0-.46417-.12894-.56733-.36102-.11604-.21919-.09027-.47707.06447-.67047l16.85211-21.80329c.27078-.34813.64469-.52864,1.08307-.52864h6.9626c.28366,0,.52865.15473.65757.4126s.10315.54154-.07736.77362l-16.73605,21.64856c-.27078.34813-.64469.52864-1.08307.52864ZM288.26229,220.12303h-4.98987c-.24498,0-.46417-.12894-.56733-.36102-.11604-.21919-.09027-.47707.06447-.67047l16.85209-21.80329c.27078-.34813.64469-.52864,1.08307-.52864h4.80935c.28366,0,.52865.15473.65757.4126s.09027.54154-.07736.77362l-16.73605,21.64856c-.28366.34813-.65757.52864-1.09597.52864h.00002ZM299.29931,220.12303h-3.67472c-.24498,0-.46417-.12894-.56733-.36102-.11604-.21919-.09027-.47707.06447-.67047l16.85209-21.80329c.27078-.34813.64469-.52864,1.08307-.52864h3.4813c.28366,0,.52865.15473.65757.4126s.09027.54154-.07736.77362l-16.73605,21.64856c-.27078.34813-.64469.52864-1.08307.52864h.00002Z" style="fill: #fff; fill-rule: evenodd; stroke-width: 0px;"></path><g><path d="M214.1105,233.01676c-1.32805-.8252-3.93259-1.21201-7.95543-1.21201h-17.49677v23.53105h3.72629v-9.02561h13.77051c4.03574,0,6.64026-.38682,7.95543-1.19912,1.35385-.8252,2.03721-2.35955,2.03721-4.53859v-3.00424c.01289-2.17904-.67048-3.71339-2.03721-4.55148h-.00002ZM212.21512,238.45791v1.09596c0,1.45699-.32234,2.41113-.94124,2.82373-.67048.45128-2.08878.68337-4.22914.68337h-14.64727v-8.11015h14.64727c2.14036,0,3.57157.23209,4.22914.68337.61889.4255.94124,1.37963.94124,2.82373Z" style="fill: #00a19b; stroke-width: 0px;"></path><path d="M227.54576,235.01528h21.31335v-3.21053h-24.97514v23.53105h24.97514v-3.21053h-21.31333v-7.38811h20.42366v-3.21053h-20.42366l-.00002-6.51133Z" style="fill: #00a19b; stroke-width: 0px;"></path><path d="M254.24867,235.01528h12.23613v20.32051h3.72631v-20.32051h12.22327v-3.21053h-28.18566l-.00004,3.21053Z" style="fill: #00a19b; stroke-width: 0px;"></path><path d="M315.31334,233.00386c-1.34096-.8123-3.94548-1.21201-7.98122-1.21201h-17.96095v23.53105h3.72631v-8.97403h14.64725c3.10739,0,4.28073.3997,4.71911.74784.61891.47707.92835,1.41831.92835,2.79794v5.42826h3.72631v-5.99558c0-1.40541-.37393-2.54007-1.12175-3.35237-.46416-.50285-1.07016-.88967-1.80511-1.13464.95412-.30945,1.6633-.70916,2.14036-1.19912.69627-.72205,1.04439-1.8438,1.04439-3.33947v-2.73347c.01291-2.19193-.68337-3.72629-2.063-4.56438h-.00004ZM313.49532,238.45791v1.09596c0,1.41831-.32234,2.37244-.94126,2.81083-.67046.46417-2.08878.69626-4.21623.69626h-15.22749v-8.11015h15.22749c2.12746,0,3.54577.23209,4.21623.70916.61891.45128.94126,1.39252.94126,2.79794Z" style="fill: #00a19b; stroke-width: 0px;"></path><path d="M354.49738,233.18437c-.82522-.60601-1.90829-1.0315-3.2492-1.28937-1.30228-.24498-3.28788-.37392-5.89244-.37392h-8.25198c-2.60452,0-4.59016.12894-5.89244.37392-1.32805.25787-2.42403.68337-3.2492,1.28937-.92835.68337-1.59881,1.62461-2.01142,2.81083-.3997,1.16044-.5931,2.72058-.5931,4.65464v6.24056c0,1.76644.2063,3.22343.60601,4.3194.41261,1.12176,1.09597,2.03721,2.03719,2.73347.83808.60601,1.92115,1.04439,3.22343,1.28937,1.27647.24498,3.27502.36102,5.91821.36102h8.2133c2.66901,0,4.66752-.12894,5.94399-.36102,1.30228-.24498,2.37244-.68337,3.19766-1.28937.90258-.65758,1.57304-1.58593,1.98564-2.74636.41261-1.13464.61891-2.63032.61891-4.44833v-6.3695c0-1.80512-.2063-3.2879-.61891-4.43544-.41261-1.17333-1.08307-2.10167-1.98564-2.75926ZM346.81274,252.30577h-11.16597c-1.56013,0-2.75928-.12894-3.59736-.37392-.7994-.23209-1.41832-.63179-1.8567-1.17333-.32234-.38682-.55442-.86388-.68337-1.39252-.14181-.56733-.2063-1.53436-.2063-2.86241v-6.00848c0-1.32805.06445-2.29508.2063-2.86241.12895-.54153.36102-1.00571.68337-1.39252.43838-.54153,1.07016-.92835,1.8567-1.16044.82522-.24498,2.03719-.37392,3.59736-.37392h11.16597c1.56013,0,2.75928.12894,3.58445.37392.7865.23209,1.41832.63179,1.8567,1.16044.29657.37392.51574.8252.64469,1.32805.14181.54153.2063,1.40541.2063,2.57874v6.71763c0,1.16044-.06445,2.02431-.2063,2.56585-.12895.51575-.34812.96703-.64469,1.34095-.43838.54153-1.07016.92835-1.8567,1.17333-.82522.23209-2.02432.36102-3.58445.36102v.00002Z" style="fill: #00a19b; stroke-width: 0px;"></path><path d="M396.53094,231.80474h-3.7134v19.84344l-21.86775-19.84344h-5.28644v23.53105h3.73917v-20.15289l22.19009,20.15289h4.93828l.00004-23.53105Z" style="fill: #00a19b; stroke-width: 0px;"></path><path d="M417.07063,231.80474l-14.75042,23.53105h4.28073l3.14607-5.04145h19.27613l3.23634,5.04145h4.03574l-14.7891-23.53105h-4.43548ZM411.66816,247.22564l7.65888-12.19746,7.78782,12.19746h-15.4467Z" style="fill: #00a19b; stroke-width: 0px;"></path><path d="M469.44493,244.69847c-.3868-.88967-1.04439-1.59882-1.95983-2.08879-.61891-.34813-1.44409-.59311-2.46271-.74784-.9928-.14183-2.47561-.21919-4.42254-.21919h-8.87089c-2.66901,0-4.42254-.25787-5.23485-.77362-.77363-.48996-1.14756-1.39252-1.14756-2.75926,0-1.34095.3868-2.23062,1.17333-2.70768.83808-.50285,2.52716-.76073,5.01568-.76073h8.4196c2.43693,0,4.04865.24498,4.77069.73494.68337.46417,1.01862,1.39252,1.01862,2.77215v.68337h3.61023v-.99281c0-1.14754-.14181-2.11457-.42548-2.8753-.28366-.78652-.74782-1.4312-1.36673-1.92116-.73495-.56733-1.75353-.96703-3.03003-1.18622-1.23779-.21919-3.42974-.32234-6.49845-.32234h-5.60878c-4.15178,0-6.93683.47707-8.52273,1.46988-1.61172,1.00571-2.43693,2.77215-2.43693,5.23485,0,2.41113.72205,4.13888,2.14036,5.14459,1.40541.99281,3.73917,1.48278,7.13023,1.48278h10.43102c2.11459,0,3.52.24498,4.16469.73494.61891.46417.92835,1.37963.92835,2.70768,0,1.62461-.45129,2.6819-1.36673,3.23633-.96703.58021-3.10739.87677-6.38241.87677h-6.44686c-2.72056,0-4.57726-.27077-5.54429-.79941-.91544-.50285-1.35383-1.39252-1.35383-2.70768,0-.15473.01291-.45128.03868-.88967l.06445-.79941h-3.59736l-.05159.27077c-.01291.07736-.02577.18051-.02577.30945-.03868.69626-.05159,1.18622-.05159,1.46988,0,2.2564.76073,3.9068,2.26931,4.88672,1.48277.96703,3.85521,1.4441,7.27208,1.4441h8.38092c3.94548,0,6.62739-.51575,8.17462-1.56014,1.56013-1.07018,2.35953-2.93977,2.35953-5.58299.01291-1.62461-.18053-2.88819-.55442-3.76497h-.00004Z" style="fill: #00a19b; stroke-width: 0px;"></path></g><g><path d="M237.35789,274.81821v1.27649h-6.97551v8.2133h-1.457v-17.10998h8.94825v1.27649h-7.49125v6.33082h6.97551v.01289Z" style="fill: #fff; stroke-width: 0px;"></path><path d="M255.4091,275.73367c0,5.20906-2.77214,8.8451-6.69185,8.8451-4.02284,0-6.74343-3.62313-6.74343-8.94825,0-5.08013,2.82373-8.71615,6.71762-8.71615,3.94548,0,6.71762,3.64893,6.71762,8.8193h.00004ZM243.54686,275.65632c0,4.48701,2.10168,7.6202,5.13172,7.6202,3.00422,0,5.13172-3.13317,5.13172-7.54284,0-4.38386-2.12746-7.51704-5.13172-7.51704-2.96554,0-5.13172,3.13317-5.13172,7.43968Z" style="fill: #fff; stroke-width: 0px;"></path><path d="M263.37741,267.19802c2.6432,0,3.41683.07736,4.53858.46417,1.76643.56733,2.87531,2.17904,2.87531,4.22914,0,2.2564-1.22492,3.79076-3.68759,4.61596l4.69333,7.80071h-1.79225l-4.59016-7.5944h-3.18475v7.5944h-1.457v-17.10998h2.60452ZM263.429,275.42422c2.2564,0,2.82373-.05157,3.68759-.36102,1.32805-.46417,2.07587-1.61172,2.07587-3.21054,0-1.457-.67046-2.54007-1.79225-3.00424-.82522-.30946-1.50858-.38682-3.94548-.38682h-1.22492v6.94972h1.19911l.00008.01291Z" style="fill: #fff; stroke-width: 0px;"></path><path d="M278.94015,267.19802l5.15749,15.47247,5.15749-15.47247h2.35953v17.10998h-1.457v-15.76902l-5.31221,15.76902h-1.457l-5.33802-15.76902v15.76902h-1.457v-17.10998h2.34671Z" style="fill: #fff; stroke-width: 0px;"></path><path d="M298.98988,267.19802v10.16026c.02577,3.0816.07736,3.54577.64469,4.33229.67046,1.00571,2.0501,1.58592,3.68759,1.58592,1.84379,0,3.3137-.72205,3.9197-1.92117.3868-.74784.41261-1.17333.43838-3.99706v-10.16026h1.457v10.18603c0,2.79794-.02577,3.13317-.33525,3.99706-.72205,2.02432-2.74637,3.21054-5.49274,3.21054-2.46271,0-4.33227-.95414-5.20908-2.61742-.43838-.85099-.5931-1.68907-.5931-3.33947v-11.43673h1.48281Z" style="fill: #fff; stroke-width: 0px;"></path><path d="M316.55116,267.19802v15.82061h7.28495v1.27649h-8.79353v-17.10998h1.50858v.01289Z" style="fill: #fff; stroke-width: 0px;"></path><path d="M334.70551,267.06909l5.93112,17.2389h-1.53436l-1.6633-4.84803h-6.5629l-1.68907,4.84803h-1.50858l5.93112-17.2389h1.09597ZM334.13818,269.14498l-2.87531,9.02561h5.72482l-2.8495-9.02561Z" style="fill: #fff; stroke-width: 0px;"></path><path d="M365.88253,275.73367c0,5.20906-2.77214,8.8451-6.69185,8.8451-4.02284,0-6.74343-3.62313-6.74343-8.94825,0-5.08013,2.82373-8.71615,6.71762-8.71615,3.94548,0,6.71762,3.64893,6.71762,8.8193h.00004ZM354.03319,275.65632c0,4.48701,2.10168,7.6202,5.13172,7.6202,3.00422,0,5.13172-3.13317,5.13172-7.54284,0-4.38386-2.12746-7.51704-5.13172-7.51704-2.97845,0-5.13172,3.13317-5.13172,7.43968Z" style="fill: #fff; stroke-width: 0px;"></path><path d="M372.84513,267.19802l8.613,14.9825v-14.9825h1.35383v17.10998h-1.68907l-8.50987-14.93094v14.93094h-1.37964v-17.10998h1.61175Z" style="fill: #fff; stroke-width: 0px;"></path><path d="M397.4077,274.81821v1.27649h-6.97551v6.92392h7.59442v1.27649h-9.05138v-17.10998h8.94825v1.27649h-7.49125v6.33082h6.97551l-.00004.02577Z" style="fill: #fff; stroke-width: 0px;"></path><path d="M419.94591,267.19802v1.27649h-4.40967v15.82061h-1.457v-15.82061h-4.43544v-1.27649h10.30211Z" style="fill: #fff; stroke-width: 0px;"></path><path d="M432.91703,274.81821v1.27649h-6.97551v6.92392h7.59442v1.27649h-9.05138v-17.10998h8.94825v1.27649h-7.49125v6.33082h6.97551l-.00004.02577Z" style="fill: #fff; stroke-width: 0px;"></path><path d="M444.12164,267.06909l5.93112,17.2389h-1.53436l-1.6633-4.84803h-6.5629l-1.68907,4.84803h-1.50858l5.93112-17.2389h1.09597ZM443.55431,269.14498l-2.87531,9.02561h5.72482l-2.8495-9.02561Z" style="fill: #fff; stroke-width: 0px;"></path><path d="M456.938,267.19802l5.15749,15.47247,5.15749-15.47247h2.35953v17.10998h-1.457v-15.76902l-5.31221,15.76902h-1.457l-5.33802-15.76902v15.76902h-1.457v-17.10998h2.34671Z" style="fill: #fff; stroke-width: 0px;"></path></g></g></g></svg> 