<?xml version="1.0" encoding="UTF-8"?> <svg xmlns="http://www.w3.org/2000/svg" id="uuid-6281b130-e2fe-4b3d-a1d0-935d636c2532" data-name="Layer 2" width="480" height="480" viewBox="0 0 480 480"><g id="uuid-858b5b29-5c70-4295-a6dd-199f1eddeda0" data-name="Layer 1"><rect width="480" height="480" style="fill: none; stroke-width: 0px;"></rect><g id="uuid-d1652f86-4701-4f68-a552-8dab0efa7a3a" data-name="uuid-c7af55dd-64ed-42dd-b617-345e50823582"><path d="M98.64632,251.87104c-1.03789.64869-2.07583,1.16764-3.1137,1.81633v-27.89373c2.20557-2.20555,4.15164-4.54084,5.96797-6.87613,9.21143-12.32514,8.1735-31.52641-2.07583-42.81363-1.16763-1.29738-2.46501-2.46502-3.89215-3.63268V24.05061h90.94656c41.38651,0,74.98871,32.95353,74.98871,73.56161,0,34.64012-24.26108,63.57176-57.08485,71.4858l18.29311,25.94764c-.3892.38922-.77844.64869-1.03789,1.03791-15.43885.12975-27.63424,4.54084-39.31069,14.01174l-.3892.25947-.25949.25947c-1.55688,1.42713-2.98396,2.72451-4.54084,4.02189l-14.91994-23.09342v-59.54987h12.32514c19.59049,0,35.41854-14.53068,35.41854-32.56432s-14.79016-32.56431-34.38065-32.56431h-26.98555v158.2807c-2.33527.38922-4.54084.77844-8.1735,1.6866-12.45488,2.85424-23.74209,11.67645-32.82377,18.68231-4.93004,3.89215-6.35717,4.80031-6.74641,5.05979-.77845.38922-1.55688.90816-2.20557,1.29738M294.81063,156.25392l.51898-.25947.64869-.25947c6.35721-2.72451,13.75223-4.15162,21.40682-4.15162,5.57873,0,11.15746.90816,15.95779,2.46502v-87.18415h33.21297c14.5307,0,26.33686,13.36305,26.33686,27.89373s-11.80615,26.33688-26.33686,26.33688h-17.25518v40.34862c1.29738.90816,2.72447,1.81633,4.41113,2.98398l.51898.38922,1.29738,1.03791h25.55846c17.64438,0,31.00748,14.27119,31.00748,31.91563-.25949,6.0977-1.68658,11.5467-4.15164,16.21729,7.3951,8.95193,16.60648,20.88787,22.05551,29.71006l.25949.38922c2.33527,4.02189,4.54084,9.34115,5.96793,14.14147,18.29307-13.10357,30.0993-33.60221,30.0993-56.56588,0-28.41268-9.98986-48.52211-43.46233-64.09071,13.62252-12.71436,21.9258-29.71006,21.9258-48.39239,0-16.99571-6.48691-32.56431-17.90387-44.75971-11.80615-13.10357-32.82377-20.36891-61.23649-20.36891h-85.36794v141.02551c1.42709-.90816,2.98396-1.81633,4.54084-2.85424,3.11375-1.94607,6.35721-4.15162,9.98986-5.96797M266.26819,366.30018c1.42709,3.11371,2.72447,5.96797,4.15164,6.35717.64869.12975,1.29738.25949,2.07578.25949,3.24346,0,7.91402-1.81633,11.15748-4.41109,1.81637-1.55688,1.29738-2.59477.3892-4.02189-.25949-.3892-.51898-.90818-.90818-1.55688-.90818-1.68658-1.42709-3.50295-1.81637-5.05979-.90818-3.24346-1.68658-5.96797-5.05982-5.44902-4.93004.64869-9.60066,1.03789-14.9199,1.03789-.12971,0-1.68658,0-2.20557,1.16764-.64869,1.29738.7784,2.59477,2.20557,3.89215.7784.77844,1.68658,1.55688,2.20557,2.33527.77856,1.42717,1.81645,3.50299,2.72463,5.44906M21.06283,377.06852c-.12975,0-.3892,0-.51894.12975-2.85425,1.16764-6.09771,4.80033-6.22743,7.00586-.64869,9.47088-1.0379,10.50881-3.50294,13.36303-.77844.77844-1.16763,2.72451-.3892,3.50295s9.98986,3.63266,11.02775,3.63266h.25949c.77844-.25949,1.55687-2.33527,3.37321-8.95193,1.0379-3.50295,2.20556-7.5248,3.50294-11.1575.12975-.25949.12975-.51895-.77844-1.81633-1.03797-1.55688-4.67067-5.70848-6.74644-5.70848M469.95732,363.70542c-.12971.90818-.7784,1.55688-1.81637,1.68658-1.16768.25949-2.33527.3892-3.63266.3892-9.47088,0-19.46074-7.5248-23.35289-14.5307-5.18953-9.47088-9.47088-15.04965-17.12547-17.77416h0c.7784,1.55688,1.68658,2.98396,2.72447,4.41109.64869.77844,1.16768,1.68658,1.68658,2.46502,2.46506,4.15164,5.96793,10.24936,7.7843,16.34699,1.68658,5.70848,7.7843,9.98986,13.36303,13.49277l7.0059,3.7624c1.42709.64869,2.20557,1.68658,2.07578,2.59477-.12971.77844-.3892,1.42713-1.68658,1.81633l-1.29738.12975h-1.42709c-12.58463,0-22.7042-4.28135-30.8777-13.10357-2.46506-2.72451-4.93004-4.15164-7.3951-4.15164-5.57873,4.93004-11.28725,9.86012-18.94176,10.37906-9.47088-1.55688-17.38496-1.03789-23.35289,1.55688-1.03789.3892-1.94607.64869-2.98396,1.03789-5.44902,1.94607-11.02775,4.02189-17.25518,4.28135-3.37316,0-7.65459-1.68658-8.82219-5.05979-.3892-1.42713-.25949-2.72451-.7784-4.41109-.7784-2.98396-1.42709-6.09772.25949-8.95193l4.67055-7.00586c0-.64869-.51898-1.16764-1.16768-1.29738s-1.42709.25949-2.20557.51895c-.7784.25949-1.42709.64869-2.07578.64869-2.07578-.12975-1.94607-2.07582-1.94607-2.07582.25949-5.44902,4.67055-9.73037,8.82219-13.49277,1.16768-1.03789,2.33527-2.07582,3.37316-3.24346,1.16768-5.96797,3.50295-10.89801,7.26531-15.1794-.12971-.3892-.3892-.77844-.90818-1.03789-1.42709.25949-2.85426.51895-4.28135.77844-4.54084.90818-9.21139,1.68658-14.14151,1.68658-6.48691,3.3732-15.43889,4.41109-17.90387,2.72451,0,0-1.03789-.77844-1.16768-1.68658-.12971-.90818.12971-1.94607.3892-2.46502,6.35721-8.82219,8.82219-19.97969,7.0059-30.61824-.12971-.90818-.51898-1.16764-1.03789-1.16764-.7784,0-1.03789.90818-1.16768,1.42713-1.94607,11.1575-5.05982,19.331-10.11957,27.11529-1.68658,2.59477-6.35721,3.63266-10.89805,4.54084-1.94607.3892-3.63266.64869-5.57873,1.42713-1.03789.3892-2.46506,1.42713-2.46506,2.98396-.12971,3.24346,1.55688,6.09772,3.24346,8.69248l.25949.25949c.3892.77844,11.15746,18.42285,11.54674,22.05555.3892,3.11371-1.03789,12.71434-2.33527,16.73623-.3892,1.42713.25949,1.55688.3892,1.55688.25949,0,.64869-.12975,1.16768-.51895,1.81637-1.29738,8.1735-11.02775,8.69248-14.01172s-.3892-4.93004-1.29738-6.87611l-12.71434-25.16922.12971-.25949c.64869-1.29738,2.33527-2.07582,4.67055-2.20557h.25949c2.07578,0,3.89215.64869,5.57873,1.42713.7784.25949,1.68658.64869,2.46506.90818h.25949l.12971.25949c2.85426,7.65455,4.15164,10.63856,11.15746,21.92576,2.33527,3.7624,2.33527,8.56273,0,13.36303-2.59477,5.44902-5.70852,10.63856-9.21139,15.69834-2.85426,2.98396-6.74641,3.24346-10.50877,3.50295-.7784,0-1.68658.12975-2.46506.25949h-3.63266c-11.02775,5.83822-22.57449,9.73037-34.51035,13.49277-1.68658.51895-3.37316.77844-5.18953.77844-4.15164,0-8.04379-1.42713-10.76826-3.7624-2.98396-2.33527-4.80033-5.57873-6.48691-8.69248-.64869-1.29738-1.42709-2.59477-2.20557-3.7624-.90818-1.16764-2.46506-1.68658-4.67055-1.68658-.7784,0-1.55688,0-2.20557.12975-.64869,0-1.29738.12975-1.94607.12975-1.03789,0-2.46502-.12975-3.11371-1.16764l-1.16764-1.94607c-2.59477-4.41109-5.18953-8.69248-7.7843-13.23332-.64869-1.03789-.64869-2.33527-.25949-3.24346s1.16764-1.42713,2.20557-1.68658c4.93004-1.03789,9.21143-1.94607,13.75223-2.33527,4.67055-.3892,8.1735.77844,10.89805,3.89215,2.07578,2.33527,3.63266,5.05979,5.18953,7.65455,2.85426,4.80033,2.33527,6.22742,6.87611,10.37906.12971.12975,2.59477,1.94607,5.44902,2.20557,4.28135.25949,11.54674-2.59477,16.08758-4.80033,2.85426-1.68658,6.74641-4.54084,6.74641-8.56273-.51898-8.82219-7.13561-15.1794-12.58463-19.07154-8.5627-4.41109-15.43889-9.86012-19.84994-15.43885-2.07578-2.85426-3.11375-6.35717-4.02186-9.60063-.25949-.77844-.3892-1.55688-.64869-2.33527-.12971-.51895-.64869-.64869-1.03789-.64869s-.90818.12975-1.16768.3892c-2.20557,1.94607-.90818,5.96797,0,8.69248.12971.3892.25949.77844.3892,1.16764l.12971.3892c.64869,2.07582,1.03789,3.63266-.25949,4.80033-1.94607,1.55688-4.54084,2.33527-8.1735,2.33527-1.55688,0-3.11375-.12975-4.67055-.25949-.90818-.12975-1.68658-.12975-2.46506-.12975-4.41109-.25949-8.69248-1.03789-12.71434-1.94607-4.67059-.90818-9.60063-1.94607-14.66041-1.94607-1.16764,0-2.20557,0-3.24346.12975-2.59477.12975-5.57873.64869-8.69248,1.03789-4.02189.64869-8.30324,1.29738-12.06564,1.29738-6.35717,0-10.37906-1.94607-12.19539-5.96797-4.02189-10.11957-1.94607-22.18526-.25949-31.00744,0-.90818-1.16764-1.29738-1.68658-1.42713-.25949-.12975-.3892-.12975-.51895-.12975-.51895,0-1.03789.25949-1.29738.90818-1.16764,4.28135-1.81633,8.82219-2.46502,13.36303-.77844,5.57873-1.68658,11.41695-3.50295,16.86598-2.72451,8.30324-9.60063,18.81205-18.9418,23.48264-7.26535,3.7624-15.56859,5.70848-27.11529,6.48691-15.56859.25949-34.76985,2.59477-46.05709,18.68231-.77845,1.42713-.90818,1.81633-1.16763,2.98396-.12976.51895-.12976,1.03789.12976,1.29738.3892.51895,1.16763.3892,1.68658-.12975,10.63856-11.93594,25.16922-18.03361,43.20283-18.03361h2.98396c14.5307,0,32.69406-1.94607,43.85153-17.12547,2.72451-3.11371,6.87611-9.98986,6.87611-9.98986l.25949-.3892,6.35717,4.80033-.12975.25949c0,.12975-2.72451,7.00586-4.41109,10.11957-1.68658,3.3732-6.35717,11.67645-11.67645,14.66041-1.29738.64869-2.85426,1.55688-4.54084,2.46502-3.11371,1.55688-6.87611,3.63266-10.63856,5.70848-3.11371,1.81633-7.00586,2.72451-11.02775,2.72451-2.33527,0-4.67059-.25949-7.00586-.90818-4.28135-.77844-9.73037-1.81633-14.79016-1.81633-4.15164,0-7.3951.64869-10.24932,1.94607-2.20557,1.42713-4.41109,3.3732-6.48691,5.31928-1.29738,1.29738-2.72451,2.46502-4.02189,3.63266-3.11371,2.46502-9.60063,6.74641-16.34703,6.35717-1.42714-.12975-2.85426-.51895-4.15164-.77844-1.55688-.3892-3.11371-.77844-4.54084-.77844-1.68658,0-2.85426.51895-3.89215,1.68658-1.81632,1.68658-3.11371,3.89215-4.28135,6.09772-1.94607,3.24346-3.89215,6.61666-7.5248,8.30324-2.07583,1.16764-4.41109,1.68658-7.13561,1.68658-2.85426,0-5.83822-.64869-8.56273-1.29738-2.20557-.51895-4.15164-.90818-6.22742-1.03789h-.51894l.12975-.77844c.12975-.90818.3892-1.68658.51894-2.59477,1.16763-5.70848,2.46501-11.5467,6.22742-15.95779l.12976-.12975h.12976c2.46501-.25949,5.05979-.77844,7.13561-2.59477,2.59477-2.33527,4.67059-5.31928,6.61666-8.56273l.12976-.12975c1.16763-.77844,2.46501-1.42713,3.63266-2.20557,4.93004-2.85426,9.98986-5.83822,13.10358-10.76826,1.03789-2.33527,2.20557-5.05979,3.24346-7.65455,1.68658-4.41109,3.24346-8.1735,4.54084-9.60063.77845-.77844,1.55688-1.16764,2.72451-1.29738.51894,0,1.29738-.12975,2.46501-.12975,2.20557-.12975,5.31929-.25949,8.1735-.64869,1.81632-.25949,11.41695-3.63266,16.21729-8.04379,1.29738-1.29738,1.94607-3.50295,1.29738-5.44902-.12976-.64869-.64869-1.81633-1.29738-3.24346-1.42714-3.50295-3.63266-8.95193-4.54084-13.36303-.3892-1.94607-.64869-6.74641-.77845-11.67645-.12976-3.11371-.25949-6.22742-.51894-9.08168-.12976-1.42713-.64869-1.42713-.90818-1.42713-.12976,0-.3892,0-.64869.12975-6.22742,1.55688-12.71434,3.24346-19.5905,3.24346-2.20557,0-4.15164-.12975-6.22742-.51895-11.5467-1.42713-25.42871-9.08168-30.4885-22.57445-3.89215-10.24932-3.50295-26.0774,4.93004-35.28881,6.35717-7.7843,14.01172-14.14147,21.53656-20.36891,1.42714-1.16764,2.98396-2.46502,4.41109-3.63268,1.55688-1.29738,2.20557-2.20555,2.07583-3.50293-.25949-2.07582-1.94607-3.7624-3.63266-4.28137-1.81632-.51895-3.89215-.51895-5.57873-.51895h-3.63266c-2.72452,0-5.57873-.12975-8.43299-1.29738-.3892-.12975-.77845-.25947-1.16763-.38922-8.69248-4.02189-16.60648-13.75227-17.77416-23.22315-.25949-4.54084.51894-8.56273,2.85426-12.19539,6.22742,3.3732,11.67645,8.82221,18.81205,10.76828,2.72451.64869,5.44902,1.03791,8.30324,1.6866.3892.12975,1.16763.12975,1.68658.25947l.77845.12975c4.41108,1.03791,16.34704,4.02189,21.66631,9.86012s5.83822,16.6065,1.16763,22.96367c-4.02189,5.449-9.98986,10.50881-16.21729,15.69834-3.89215,3.24346-7.7843,6.61666-11.28725,10.11959-7.3951,7.39508-10.11957,16.86598-7.5248,26.20713,2.72451,8.30324,11.02775,14.5307,20.10943,15.1794h.90818c12.19539,0,21.66631-5.57873,31.65613-11.41695.90818-.51895,1.94607-1.16764,2.72451-1.68658,1.68658-1.03789,5.18953-3.7624,7.91404-5.83822,8.04379-6.35717,17.64442-13.75227,26.59635-15.82807,5.96797-1.42713,7.00586-1.42713,13.23332-2.07582,4.41109-.38922,8.56273-.90816,12.32514-2.20555,8.30324-2.85424,15.56859-9.08168,22.7042-15.56859,9.08168-7.39508,17.90387-10.50881,30.22901-10.50881,5.31928,0,6.09772-.64869,12.58463-6.74639,1.42713-1.29738,3.11371-2.85424,5.18957-4.80031,7.0059-6.48691,15.95779-9.21143,24.65027-11.93592,4.41113-1.42713,8.95197-2.72451,13.23332-4.67059,5.449-1.81633,10.50879-5.05979,15.30912-8.17352,2.85426-1.81633,5.83822-3.7624,8.82219-5.31928,4.41113-1.94607,9.73037-2.98398,15.1794-2.98398,4.28135,0,8.43299.64869,11.93594,1.94607,5.44902,1.94607,7.7843,2.98398,15.3091,8.17352l38.0133,31.52641.51898.51895c.64869.64869,1.55688,1.42713,2.20557,2.20555,1.16768,1.16764,22.315,25.81791,31.13719,40.21887,2.85426,4.80031,5.18953,12.19539,5.44902,15.69834,1.68658,22.18526,8.43299,42.16494,14.66041,59.03092.25949.64869,1.55688,1.81633,2.98396,3.11371,1.68658,1.42713,3.50295,3.11371,4.67055,4.80033,1.68658,2.33527,3.24346,4.93004,4.67055,7.3951,3.76244,6.35717,7.7843,12.97383,14.5307,16.86598l5.70852,2.85426c.90803.64877,1.03773,1.29746.90803,2.0759M331.52655,224.36652c-1.94607-3.89215-3.89215-6.35717-5.83822-7.26535-.51898-.25947-1.16768-.38922-1.81637-.38922-1.29738,0-2.59477.51895-2.98396,1.29738-1.68658,2.72451-.12971,4.67059,1.55688,7.00586.7784,1.16764,1.68658,2.33529,2.46506,3.89215,2.33527,4.67059,3.50295,9.73037,5.44902,19.84996.12971.90816.7784,1.03791.90818,1.03791.51898,0,.90818-.51895,1.16768-1.16764.12963-.12973,4.02178-14.27121-.90826-24.26106M395.48747,343.59598c-1.81637-.90818-3.76244-.25949-3.76244-.25949-5.96793,1.55688-8.95197,7.78434-9.34117,8.43303,0,0-.90818,1.68658-.3892,2.59477.51898.77844,1.42709,1.16764,4.02186,1.29738s7.3951-.51895,8.69248-1.81633c1.29738-1.16764,1.68658-4.15164,1.68658-4.15164.00008-.51895.90826-5.18953-.9081-6.09772M413.39138,301.95002c-.64869-2.98396-3.24346-7.91404-5.57873-10.37906s-3.11375-3.7624-3.89215-5.05979-.12971-.90818-2.98396-4.41109c-2.46506-2.98396-4.67055-2.72451-5.31924-2.72451,0,0-2.59477-.12975-4.54084,2.72451-.7784,1.03789-2.59477,5.44902-2.59477,5.44902-.90818,2.20557-1.68658,2.85426-2.46506,6.09772-.7784,3.11371-.51898,4.41109-.12971,6.09772.25949,1.68658,1.16768,1.81633,1.81637,1.42713s.64869-.77844,2.72447-3.50295c1.81637-2.33527,4.15164-3.7624,5.05982-3.7624,3.63266-.3892,9.86008,7.7843,11.15746,10.63856,1.16768,2.59477,1.42709,8.82219,1.42709,8.82219,0,.25949-.12971,2.59477,1.81637,2.59477,1.68658,0,2.33527-1.29738,2.59477-1.81633s.90818-1.68658,1.29738-4.02189c.25941-2.59481.3892-5.18957-.38928-8.17354M31.4419,376.80903c.77845.64869,1.81632,1.42713,3.50295,1.42713.90818,0,1.94607-.25949,2.85426-.77844,5.31929-2.59477,10.76826-12.45488,10.898-12.97383.51894-1.55688-1.29738-2.98396-3.50295-4.80033l-.25949-.25949c-1.03789-.77844-2.85426-.64869-4.02189.12975-.90818.51895-1.68658,1.16764-2.59477,1.68658-2.72451,1.81633-5.57873,3.63266-8.56274,6.22742-1.0379.90818-1.68659,2.59477-1.81632,3.89215-.12975,1.03789.12975,1.94607.51894,2.46502.38924.25953,2.46501,2.59484,2.98401,2.98404M93.32703,455.43044h3.11371v-8.43299h8.30324v-2.72451h-8.30324v-6.09772h8.56273v-2.85426h-11.80619v20.10947s.12976,0,.12975,0ZM126.41029,455.0412c1.29738-.51895,2.33527-1.29738,3.3732-2.20557.90818-.90818,1.68658-2.07582,2.20557-3.3732.51895-1.29738.77844-2.59477.77844-4.15164,0-1.42713-.25949-2.85426-.77844-4.15164s-1.29738-2.33527-2.20557-3.24346-2.07582-1.68658-3.3732-2.20557c-1.29738-.51895-2.72451-.77844-4.15164-.77844-1.55688,0-2.98396.25949-4.15164.77844-1.29738.51895-2.33527,1.29738-3.3732,2.20557-.90818.90818-1.68658,2.07582-2.20557,3.24346-.51894,1.29738-.77845,2.59477-.77845,4.15164,0,1.42713.25949,2.85426.77845,4.15164.51897,1.29738,1.29738,2.33527,2.20557,3.3732.90818.90818,2.07582,1.68658,3.3732,2.20557,1.29738.51895,2.72451.77844,4.15164.77844s2.85426-.25945,4.15164-.77844M119.27469,452.31673c-.90818-.3892-1.68658-.90818-2.33527-1.55688s-1.16764-1.42713-1.55688-2.33527c-.3892-.90818-.51895-1.94607-.51895-2.98396s.12975-2.07582.51895-2.98396c.3892-.90818.90818-1.68658,1.55688-2.33527s1.42713-1.16764,2.33527-1.55688c.90818-.3892,1.81633-.51895,2.98396-.51895,1.03789,0,1.94607.12975,2.85426.51895s1.68658.90818,2.33527,1.55688,1.16764,1.42713,1.55688,2.33527c.3892.90818.51895,1.94607.51895,2.98396s-.12975,2.07582-.51895,2.98396c-.3892.90818-.90818,1.68658-1.55688,2.33527s-1.42713,1.16764-2.33527,1.55688c-.90818.3892-1.81633.51895-2.85426.51895-1.16764.12975-2.07578-.12975-2.98396-.51895M140.941,455.43044h3.11371v-7.91404h2.72451l5.05979,7.91404h3.63266l-5.31928-8.1735c1.29738-.3892,2.20557-1.16764,2.98396-2.20557.64869-1.03789,1.03789-2.20557,1.03789-3.63266,0-1.94607-.64869-3.3732-1.81633-4.41109s-2.85426-1.68658-4.93004-1.68658h-6.61666v20.10939h.12979ZM144.05471,444.92163v-6.87611h3.3732c1.16764,0,1.94607.25949,2.59477.90818s.90818,1.42713.90818,2.46502-.25949,1.94607-.90818,2.59477-1.55688.90818-2.59477.90818h-3.3732v-.00004ZM179.08405,435.32101l-5.83822,16.08754-5.83822-16.08754h-4.28135v20.10943h2.98396v-15.43885l5.70848,15.43885h2.72451l5.70848-15.43885v15.43885h3.11371v-20.10943h-4.28135ZM203.73432,455.30069c.90818-.3892,1.81633-.90818,2.46502-1.68658.64869-.64869,1.16764-1.55688,1.55688-2.59477.3892-1.03789.51895-2.20557.51895-3.3732v-12.32514h-3.24346v12.32514c0,1.68658-.3892,2.98396-1.16764,3.89215s-1.94607,1.42713-3.3732,1.42713-2.59477-.51895-3.3732-1.42713-1.16764-2.20557-1.16764-3.89215v-12.32514h-3.11371v12.32514c0,1.29738.12975,2.33527.51895,3.3732.3892,1.03789.90818,1.94607,1.55688,2.59477s1.55688,1.29738,2.46502,1.68658c.90818.3892,2.07582.64869,3.24346.64869,1.03789-.12975,2.07582-.25949,3.11371-.64869M217.48659,455.43044h11.02775v-2.85426h-7.91404v-17.25518h-3.11371v20.10943ZM249.01301,455.43044h3.37316l-7.5248-20.10943h-3.37316l-7.65455,20.10943h3.3732l1.68658-4.80033h8.43299l1.68658,4.80033ZM243.17479,438.56446l3.37316,9.60063h-6.74641l3.37324-9.60063ZM285.85862,455.0412c1.29738-.51895,2.33527-1.29738,3.37316-2.20557.90818-.90818,1.68658-2.07582,2.20557-3.3732s.7784-2.59477.7784-4.15164c0-1.42713-.25949-2.85426-.7784-4.15164-.51898-1.29738-1.29738-2.33527-2.20557-3.24346s-2.07578-1.68658-3.37316-2.20557c-1.29738-.51895-2.72447-.77844-4.15164-.77844-1.55688,0-2.98396.25949-4.15164.77844-1.29738.51895-2.33527,1.29738-3.37316,2.20557-.90818.90818-1.68658,2.07582-2.20557,3.24346-.51898,1.29738-.7784,2.59477-.7784,4.15164,0,1.42713.25949,2.85426.7784,4.15164.51898,1.29738,1.29738,2.33527,2.20557,3.3732.90818.90818,2.07578,1.68658,3.37316,2.20557,1.29738.51895,2.72447.77844,4.15164.77844s2.85426-.25945,4.15164-.77844M278.72303,452.31673c-.90818-.3892-1.68658-.90818-2.33527-1.55688s-1.16768-1.42713-1.55688-2.33527c-.3892-.90818-.51898-1.94607-.51898-2.98396s.12971-2.07582.51898-2.98396c.3892-.90818.90818-1.68658,1.55688-2.33527s1.42709-1.16764,2.33527-1.55688c.90816-.3892,1.81635-.51895,2.98398-.51895,1.03789,0,1.94607.12975,2.85426.51895s1.68658.90818,2.33527,1.55688,1.16768,1.42713,1.55688,2.33527c.3892.90818.51898,1.94607.51898,2.98396s-.12971,2.07582-.51898,2.98396c-.3892.90818-.90818,1.68658-1.55688,2.33527s-1.42709,1.16764-2.33527,1.55688c-.90818.3892-1.81637.51895-2.85426.51895-1.03789.12975-2.07578-.12975-2.98396-.51895M312.7145,435.32101v14.9199l-8.95197-14.9199h-3.50295v20.10943h3.11375v-15.1794l9.08168,15.1794h3.37316v-20.10943h-3.11367ZM325.29913,455.43044h12.19543v-2.72451h-9.08168v-6.35717h8.43299v-2.72451h-8.43299v-5.57873h8.69248v-2.72451h-11.80615v20.10943h-.00008ZM362.01505,455.43044h3.11375v-17.25518h5.96793v-2.85426h-14.7902v2.85426h5.70852v17.25518ZM379.01074,455.43044h12.19543v-2.72451h-9.08168v-6.35717h8.43299v-2.72451h-8.43299v-5.57873h8.69248v-2.72451h-11.80615v20.10943h-.00008ZM412.74269,455.43044h3.37316l-7.5248-20.10943h-3.37316l-7.65459,20.10943h3.37316l1.68658-4.80033h8.43299l1.68666,4.80033ZM406.77476,438.56446l3.37316,9.60063h-6.61662l3.24346-9.60063ZM439.59849,435.32101l-5.83822,16.08754-5.83822-16.08754h-4.28135v20.10943h2.98396v-15.43885l5.70852,15.43885h2.72447l5.70852-15.43885v15.43885h3.11375v-20.10943h-4.28143Z" style="fill: #fff; stroke-width: 0px;"></path></g></g></svg> 