<?xml version="1.0" encoding="UTF-8"?> <svg xmlns="http://www.w3.org/2000/svg" id="uuid-90818399-67c9-4342-bc03-ff49397fffe8" data-name="Layer 2" width="480" height="480" viewBox="0 0 480 480"><g id="uuid-1fb06013-4a4a-4d15-8f72-0756583adfff" data-name="Layer 1"><rect width="480" height="480" style="fill: none; stroke-width: 0px;"></rect><g><path d="M48.1576,326.48534c0-5.97362-4.18892-9.58733-11.20981-9.66106H10.07378v31.53494h4.55766v-11.49005h21.85911c3.92343,0,6.28338,1.96169,6.28338,5.2509v6.23915h4.64616v-6.19491c.13283-3.21885-1.77532-6.17262-4.76416-7.37487,3.42548-1.30109,5.63918-4.64242,5.50167-8.30411ZM36.9773,332.72449H14.63144v-11.79979h22.34584c6.10639,0,6.57839,4.49865,6.57839,5.89989s-.47198,5.89985-6.57837,5.89985v.00005ZM128.26339,323.0339c-2.33044-4.70517-4.98542-6.62262-9.17434-6.62262s-6.96188,1.97646-9.20382,6.62262l-11.97678,24.52881-.38351.78173h4.89692l.14751-.30973,4.26269-8.73186h24.48457l4.26269,8.73186.14751.30973h4.94117l-.38351-.78173-12.02111-24.52881ZM108.91175,335.15819l5.32463-10.88531c1.25374-2.59597,2.65493-3.65795,4.85267-3.65795s3.55469,1.06198,4.82315,3.65795l5.32463,10.88531h-20.32509ZM188.4128,332.5917c0,10.66407,4.63144,15.67897,14.60223,15.76747h24.69104v-4.42492h-24.33701c-7.49284,0-10.32481-3.06792-10.32481-11.2983s2.78772-11.31306,10.32481-11.31306h24.39607v-4.42492h-24.69108c-10.11834.02953-14.66124,4.8822-14.66124,15.69374ZM279.38914,348.34441h4.5429v-31.53494h-4.5429v31.53494ZM373.52195,343.80151c-4.33643,0-5.38364-1.47497-13.27476-12.0063l-.35398-.472c-8.51058-11.3868-10.79682-14.44-18.23065-14.51373h-3.68748v31.53494h4.49865v-26.96251c4.10042,0,5.13292,1.34223,12.86177,11.46053l.95872,1.23897c8.56959,11.20981,10.88531,14.21876,18.05366,14.27773h3.76116v-31.53489h-4.51341v26.99199l-.07369-.01472ZM465.38333,332.09022v11.79979h-19.9712c-7.49289,0-10.32481-3.08269-10.32481-11.34255s2.78772-11.26882,10.32481-11.26882h24.27809v-4.42492h-24.63207c-9.95607.08849-14.58751,5.08868-14.58751,15.72322s4.63144,15.70846,14.60227,15.81172h24.86803v-16.22471h-4.57238l.01476-.07373Z" style="fill: #fff; stroke-width: 0px;"></path><path d="M127.9389,297.33985h-4.67569c-51.52081,0-113.26321,1.09147-113.26321,1.91745s50.97507,2.78772,113.27793,2.78772h233.45881c51.52081,0,113.26317-1.09147,113.26317-1.91745s-50.97507-2.78772-113.27793-2.78772H127.9389Z" style="fill: #fff; stroke-width: 0px;"></path><path d="M208.17743,240.30261v19.44014c-.23578,3.40502-3.18721,5.97425-6.59228,5.73848-3.0767-.213-5.52543-2.66173-5.73848-5.73848v-19.44014h-10.70832v21.51985c0,7.28637,7.53709,13.18626,16.82945,13.18626s16.82945-5.89989,16.82945-13.18626v-21.50509l-10.61983-.01476ZM242.98681,217.18981v56.60948h10.78205v-56.60948h-10.78205ZM224.75616,273.79929h10.78205v-56.60948h-10.78205v56.60948ZM171.93733,244.4178c2.98101-2.68316,4.70328-6.49136,4.74942-10.5018-.00585-3.60749-1.39413-7.07553-3.87919-9.69059-2.56644-2.83197-7.1241-4.42492-13.27476-4.42492h-18.43717v54.01351h23.80609c9.13009-.14751,16.47547-7.03561,16.47547-15.48722,0-6.18014-2.16821-10.56081-9.43987-13.90899ZM162.9105,264.44792h-10.32481v-35.39936h7.19788c3.2193.15795,5.74257,2.82427,5.7229,6.0474,0,3.16065-2.56221,5.7229-5.7229,5.7229h-3.74644v9.7053h6.87338c3.83273.17672,6.7965,3.42699,6.61978,7.25972-.16529,3.5853-3.03448,6.45449-6.61978,6.61978v.04425Z" style="fill: #e2071f; stroke-width: 0px;"></path><path d="M46.04837,235.74495c-.08111-8.88405-7.34054-16.02467-16.22471-15.95922H10.07378v54.01351h11.47529v-44.73592h5.89989c3.97254-.14724,7.3123,2.95377,7.45956,6.92632.00171.04627.00297.09255.0038.13882-.16763,4.06865-3.60114,7.23146-7.66986,7.06513h-2.6697v12.92078l11.46055,17.69968h13.5255l-15.84122-22.56707c7.19551-1.70202,12.29108-8.10808,12.33078-15.50203ZM66.108,238.91613c-9.96669.28493-17.81529,8.59556-17.53036,18.56226.2735,9.56617,7.96419,17.25685,17.53036,17.53034,7.52237,0,13.37802-3.40718,16.4017-8.73186l-8.76134-4.04141c-1.26769,2.55969-3.89949,4.15718-6.75536,4.10042-3.88949.18316-7.19103-2.82144-7.37419-6.71098-.00023-.00495-.00045-.00995-.00068-.0149v-.44247h23.7618c0-.73749.10326-1.47497.10326-2.27147.20652-11.59327-7.52233-17.97993-17.37518-17.97993ZM59.61812,253.06112c0-3.6413,2.95184-6.59313,6.59313-6.59313s6.59313,2.95184,6.59313,6.59313h-13.18626ZM126.3459,273.81401v-56.6242h-10.75257v26.78552c-2.86807-2.89233-6.76787-4.52651-10.84106-4.5429-8.84984,0-16.12145,7.90584-16.12145,17.69968s7.21264,17.69968,16.12145,17.69968c4.10884-.0347,8.03133-1.71957,10.88531-4.67569v3.76116l10.70832-.10326ZM107.80547,265.52466c-4.7793.42361-8.99708-3.1074-9.42064-7.88666-.42361-4.7793,3.10736-8.99708,7.88666-9.42069,4.7793-.42357,8.99708,3.1074,9.42064,7.8867.02251.25356.0338.50801.03394.76256.18338,4.56806-3.35389,8.42812-7.92055,8.64332l-.00005.01476Z" style="fill: #e2071f; stroke-width: 0px;"></path><circle cx="372.82871" cy="244.41779" r="36.84483" style="fill: #ffd800; stroke-width: 0px;"></circle><path d="M469.46894,269.09412h0c-.0514-.10006-.0957-.20355-.13279-.30973,0-.19175,0-.42775-.10326-.66376h0c-.04942-.60569-.18347-1.20148-.39827-1.76999-.41844-.91682-1.25306-1.57576-2.24199-1.76999-.06113-.3055-.18131-.5961-.35398-.85546-.60596-.79029-1.36307-1.45211-2.22722-1.94698l-.48677-.33926-.19175-.14751c-.44941-.35479-1.00567-.54713-1.57823-.54573-1.02503.0654-1.97155.57098-2.59597,1.38648-.10326-.28025-.28025-.92924-.38351-1.29798s-.26548-.98825-.39827-1.357h0v-.16223c-.32238-1.28142-1.33705-2.27327-2.6255-2.56644-.45949-.06612-.9224-.10551-1.38648-.11798-.44959.01855-.89773-.06203-1.31275-.236,0-.07373,0-.19175.14746-.38351.14467-.3511.26783-.71066.36874-1.07675.45166-1.48524.56248-3.05316.32445-4.58715.44445.0654.89296.09988,1.34219.10326,1.48524-.00306,2.95481-.30402,4.32166-.88499h0c3.05591-1.40853,5.02593-4.4526,5.05915-7.81734v-.28025c-.29501-3.1417-2.05023-6.12113-5.3394-9.05636.92384-.2049,1.80321-.57463,2.59597-1.09147,2.4693-1.78295,3.5885-4.90048,2.81716-7.84687v-.22124c-.1047-1.05055-.97983-1.85596-2.03547-1.8732-.5171.00113-1.01386.20193-1.38648.5605l-.25072.236c-.18608.1895-.38837.36222-.6047.51625-.64494.30379-1.33057.51247-2.03547.61951-.64863.1223-1.28898.28488-1.91745.48672-2.94995,1.01774-4.80843,2.61069-5.53115,4.71993-.42762,1.43257-.23497,2.9788.53097,4.26269v.10326c.94292,1.36672,2.04735,2.61469,3.28916,3.71692,1.593,1.47497,3.08273,2.94995,3.39242,4.6904,0,.30973.14746.89971-.89971,1.68149-.50711.25419-1.07031.37595-1.6372.35398-.98145-.01274-1.94626-.25522-2.81716-.708h0c-1.33985-.71241-2.63531-1.50545-3.87919-2.37469-2.02953-1.49779-4.25873-2.70422-6.62262-3.58417-1.09867-.43896-2.24082-.76035-3.40718-.95872-1.2527-.1453-2.45706-.5686-3.52521-1.23897l-.13279-.08849c-.39827-.25077-.79645-.54573-1.17996-.82598-1.22902-1.00369-2.63468-1.76909-4.14467-2.25671-.5523-.17393-1.12045-.29254-1.69621-.35398-.42676-.01828-.84444-.12896-1.22421-.3245l-.7965-.57526h0c-1.09079-.84709-2.25023-1.60191-3.4662-2.25671-2.05883-.94869-4.22957-1.63261-6.46039-2.03547-.11798,0-.42775-.41299-.64899-.66376-.38711-.51319-.84381-.96989-1.357-1.357-1.7378-1.5853-3.97754-2.50941-6.32765-2.61069h-.67848c-1.44094.20575-2.77624.87342-3.80541,1.90273-1.93221,1.69621-4.04141,3.21543-6.07688,4.6904-3.343,2.25941-6.44666,4.85403-9.26283,7.74361-2.94995,3.08269-4.07094,6.93239-5.02966,10.32481-.13274.48672-.28025.97349-.42775,1.47497-.26548.92924-.50149,1.88796-.72272,2.8172-1.16524,4.70517-2.27147,9.14485-6.66686,12.0063-.70359.44522-1.09264,1.25194-1.00297,2.07972.102.84466.6733,1.55879,1.47497,1.84372.54141.18311,1.11001.27287,1.68149.26548.02494.48028.21214.93793.53097,1.29798.48605.53777,1.17785.84349,1.90273.84075h.07373c2.72749-.17969,5.2658-1.45683,7.03561-3.53993.71782.71498,1.61429,1.22434,2.59597,1.47497h.61951c1.00378-.1688,2.02062-.24779,3.03844-.236.88499.28025,1.79947.61951,2.69918.95872s1.47497.53097,2.13873.78173l.35398.11798h.30973c1.50761-.19544,2.82144-1.12284,3.51044-2.47794v-.26548c.06729-.15246.12158-.31036.16223-.472h0l.11798.41299c.19562.92726.57697,1.80528,1.12099,2.5812.54735.644,1.35258,1.01148,2.1977,1.00297h0c.2816-.00527.56252-.02989.84075-.07373h.05942l.08849.10326c.45454.54924,1.05163.96264,1.72574,1.19472.81122.26548,1.62248.48672,2.41898.69324.99964.23159,1.98465.52219,2.94995.87023h.10326c.74104.27836,1.52426.42798,2.31572.44247,1.01341.00725,1.99262-.36649,2.74343-1.04722.88499-.699,1.50855-1.67591,1.76999-2.77296l.58998-.14751c1.34223-.44247,2.6697-2.94995,2.6697-2.94995.0884-.16803.18694-.33057.29501-.48672.32589-.46097.4964-1.01377.48672-1.57823-.00792-1.28619-1.04434-2.32913-2.33044-2.3452h-3.56946c-.29627.01274-.58926.06734-.87023.16223h0c-.19175-.236-.39823-.78173-.67848-.91448h.10326l.708.07373c.45724,0,.91448.07373,1.37171.07373,1.48731-.04137,2.96804-.21412,4.42492-.51625,1.24824-.14494,2.50684-.17947,3.76116-.10326h.45724c.56185.00635,1.12306.04083,1.68149.10326.64665.07184,1.29645.11123,1.94698.11798h.70796c.63081-.02813,1.2554-.1372,1.85848-.3245l.22128,1.17996.08849.39823c.32247,2.13751,1.54717,4.03367,3.36298,5.20665l.38351.25077c1.06986.80212,2.33084,1.31059,3.6579,1.47497.60974.07071,1.22686.04582,1.82895-.07373,2.35065-.44999,4.78196.11231,6.69635,1.5487l.17699.11798c.21516.13904.41754.29699.6047.472.52314.48479,1.12721.87414,1.78475,1.15048.51422.19468,1.05807.29947,1.60776.30973h0c.74784.01076,1.48371-.18856,2.12397-.57526h0c.07373.0948.14269.19328.20652.29501.36334.53984.78907,1.03488,1.26846,1.47497.91511.80946,2.11388,1.22317,3.33345,1.15048h2.27152c.26548,0,.44247-.07373.53097-.08849.34921.24964.76557.38841,1.19472.39823.19031.00059.37955-.0293.5605-.08849l2.1092-.69324c.58786-.18239,1.07049-.606,1.32751-1.16524.37126-.98164.2563-2.08102-.30996-2.96462ZM402.99188,258.63656l-.16223-.236c0-.10326-.13274-.19175-.22124-.3245-.28421-.38616-.52647-.80149-.72272-1.23897.63423,0,1.29798.13274,2.00594.16223l-.89976,1.63724Z" style="fill: #ffd800; stroke-width: 0px;"></path><path d="M371.64875,261.40948l-1.10623-.54573c-.96858-.73488-1.74739-1.69067-2.27147-2.78772-.3245-.53097-.64899-1.09147-1.00297-1.59295-.35029-.47934-.76188-.91074-1.22421-1.28322l-.236-.20652c-1.43581-3.5903-2.36411-7.36321-2.75819-11.20981-.19427-1.3858-.64976-2.72218-1.34223-3.9382h0c-1.99743-2.95233-4.17987-5.77516-6.53412-8.45161-.16223-.17699-.33926-.35398-.50149-.50149l-.11798-.11798-7.81734-6.50464-.11798-.08849c-1.06581-.81495-2.25617-1.45247-3.52521-1.88796-2.22934-.71953-4.64017-.63603-6.81437.236h-.13274c-.67848.35398-1.31275.76697-1.91745,1.15048-.84232.59853-1.75351,1.09372-2.71395,1.47497h-.16223c-.81149.34295-1.64409.63364-2.49271.87023-2.07864.49779-4.01913,1.45544-5.67866,2.80244l-1.06198.98825c-.41299.39823-.81122.76697-.97349.88499h-.33926c-2.65637-.09687-5.25203.8087-7.27161,2.53696h-.07373c-1.14269,1.17911-2.49915,2.13013-3.99716,2.80244-.67316.19378-1.36568.31248-2.06495.35398h-.07373c-.96561.05739-1.92361.20553-2.86145.44247-2.25887.74392-4.33832,1.94941-6.10641,3.53993-.76697.58998-1.26846.97349-1.47497,1.10623l-.48672.30973c-1.61789,1.17753-3.52381,1.89607-5.51639,2.07972h-.10326c-1.08949-.10375-2.03205-.80212-2.44846-1.81423-.31486-1.28808.09795-2.64535,1.07675-3.53993.66376-.66376,1.47497-1.32747,2.1977-1.96169,1.31581-1.02417,2.50864-2.1972,3.55469-3.49568,1.47133-2.12059,1.3321-4.96561-.33926-6.93239-1.48965-1.31797-3.319-2.1918-5.28038-2.52219h-.57526l-.58998-.10326-.97349-.19175c-.68334-.25783-1.32459-.61573-1.90273-1.06198-.47421-.34565-.96656-.66569-1.47497-.95872l-1.47497-.78173-.89971,1.38648c-.68613,1.06234-.9928,2.32549-.87023,3.58417v.10326c.46309,2.66574,2.18932,4.94171,4.63144,6.10641h0l.25077.10326c.50963.20157,1.04654.32585,1.59295.36874-1.33976,1.08084-2.57436,2.28583-3.68743,3.59894-1.9815,2.5402-2.48015,5.93563-1.31275,8.93833,1.32603,3.13531,4.23069,5.31941,7.61087,5.7229.48825.07418.98114.11361,1.47497.11798.86748-.00887,1.73204-.10272,2.5812-.28025h0c.01773.87302.08174,1.74446.19175,2.61069.24316,1.05203.5839,2.07913,1.01774,3.06792v.07373c-.61357.36748-1.2667.66434-1.94698.88499-.50149,0-1.06198.08849-1.47497.11798h-.61951c-.59592.06536-1.15219.33053-1.57823.75225-.61667.75572-1.07333,1.62887-1.34223,2.56644-.17699.472-.36874.95872-.5605,1.357-.1661.24262-.37032.45679-.60474.63423-.30203-.48177-.69238-.90214-1.15048-1.23897h0c-.88369-.62599-2.06626-.62599-2.94995,0l-.39823.26548-.10326.07373c-.65754.41709-1.28813.87523-1.88796,1.37171-.46124.41236-.78115.95931-.91448,1.56347-.16083.02363-.31896.06315-.472.11798-1.23434.5217-2.12194,1.63121-2.35997,2.94995-.02201.49464-.07621.98735-.16223,1.47497l-.10326.13274c-.81603.89958-.81603,2.27161,0,3.17118,1.06666.66758,2.26341,1.10002,3.51044,1.26846h.54573l.41299-.16223h.5605c.35218.04564.70175.10965,1.04722.19175.69585.17181,1.40763.27066,2.12397.29501.78628.01202,1.56279-.17577,2.25671-.54573.98659-.54173,1.78038-1.37671,2.27147-2.38945.13274-.22124.25077-.44247.38351-.61951h.19175c.38958.11465.78993.18878,1.19472.22124,1.65687-.0144,3.25734-.60348,4.52818-1.66673.33926-.26548.64899-.5605.944-.82598.29875-.2884.61397-.55924.944-.81122.38904-.13207.79893-.19202,1.20949-.17699.87811.03079,1.75176.1394,2.61069.3245,1.66367.44319,3.43325.24307,4.95589-.5605.75225-.42775,1.47497-.81122,2.1092-1.13571h.10326l.85546-.45724c1.37014-.92379,2.44945-2.21795,3.11217-3.73168.30973-.63423.7965-1.79947.92924-2.12397h.48659c.91542-.02305,1.82769-.11672,2.72871-.28025.58998-.08849,1.13571-.17699,1.56347-.20652h.57526c.85546,0,2.07972.10326,2.94995.20652s1.29798.16223,2.31572.20652h1.53394c.8944.00513,1.77786-.1968,2.5812-.58998.19175.19175.51625.64899.73749.84075h-.10326c-.64179-.00788-1.25734.25441-1.69621.72272-.77395-.25725-1.59772-.32801-2.40421-.20652-.99208.08931-1.9774.24203-2.94995.45724-.72457.10745-1.34597.57346-1.65196,1.23897-.32369.73294-.27989,1.57603.11798,2.27147.53097.95872,1.04722,1.81423,1.59295,2.72871l.236.39823c.46295.74248,1.29474,1.17249,2.16821,1.12099h.53097l.10326.17699c.42204.87018,1.01963,1.64359,1.75522,2.27147.93631.77575,2.11762,1.19387,3.33345,1.17996.53948-.00279,1.07585-.08224,1.59295-.236,2.37329-.68401,4.68289-1.57234,6.90286-2.65493h1.00302c1.22578.03124,2.41394-.42492,3.30393-1.26846l.10326-.10326.07373-.11798c.41299-.58998.78173-1.19472,1.13571-1.79947-.00666.0736-.00666.14764,0,.22124h0c.56644,1.41259,1.96016,2.31612,3.48092,2.25671h.07373c1.3849-.11177,2.7437-.44027,4.02669-.97349h.07373l.50149-.17699h.11798c1.20845-.40183,2.50329-.46809,3.74644-.19175h.41304c1.47709-.14242,2.8687-.75801,3.96768-1.75522,1.93919,2.07283,4.66988,3.22088,7.50761,3.15646h.95872c.94396-.19342,1.64701-.98663,1.72574-1.94698.02228-.18617.02228-.37432,0-.5605.17911-.01508.35668-.04465.53097-.08849.9088-.18478,1.60799-.91335,1.75522-1.82895.18523-.95508-.28389-1.91749-1.15039-2.35988ZM345.82195,256.45359l-.26548.236c-.60407.51328-1.14391,1.09763-1.60772,1.74046-.35398-.58998-.58998-1.01774-.78173-1.47497.778-.11393,1.53705-.33219,2.25671-.64899h.41299c.02984.04465.02984.10285,0,.14751h-.01476Z" style="fill: #ffd800; stroke-width: 0px;"></path><path d="M279.94964,266.09993h-.08849c-.61321.28502-1.07121.82382-1.25374,1.47497-.14751,1.91745-.19175,2.12397-.72272,2.71395-.14751.16223-.25077.54573-.07373.708.72025.32517,1.47133.5772,2.24194.75225h0c.17699,0,.30973-.48672.69324-1.81423.20652-.708.44247-1.47497.69324-2.25671,0,0,0-.11798-.14751-.36874s-.92924-1.20949-1.34223-1.20949ZM282.04412,266.09993c.19472.17537.44603.27485.708.28025.2067-.00684.40885-.06243.58998-.16223.93554-.6931,1.69373-1.59781,2.21246-2.64021.11798-.3245-.25077-.61951-.72272-.98825h0c-.2495-.16866-.57648-.16866-.82598,0l-.51625.35398c-.60213.37959-1.17861.79843-1.72574,1.25374-.2166.20971-.34345.49518-.35398.7965-.02701.16943.00981.34286.10326.48672.16331.20854.3407.4057.53097.58998v.02953ZM370.85225,263.04672l-1.16524-.57526c-1.26476-.87027-2.28137-2.05465-2.94995-3.43667-.29501-.50149-.61951-1.0325-.95872-1.47497-.2748-.35168-.58633-.67307-.92924-.95872-.23839-.18347-.44729-.40232-.61951-.64899-1.54123-3.83895-2.5343-7.87572-2.94995-11.99154-.17078-1.11604-.54582-2.19108-1.10623-3.17118-1.93302-2.85191-4.04137-5.58093-6.31288-8.17136l-.45724-.45724-.11798-.11798-7.71413-6.40138c-.93401-.73015-1.98677-1.29393-3.11217-1.66673-.77845-.26679-1.5961-.40138-2.41898-.39823-1.0564-.00819-2.10398.19229-3.08269.58998-.61951.3245-1.20949.708-1.78471,1.07675-.96552.67654-2.0108,1.23137-3.11217,1.65196-.87518.37212-1.77156.69225-2.68446.95872-1.82229.42199-3.5262,1.24878-4.98542,2.41898l-1.04722.97349c-1.32747,1.25374-1.47497,1.37171-2.55172,1.37171-2.24055-.09498-4.43356.66412-6.13589,2.12397-1.31369,1.3524-2.88292,2.43032-4.61667,3.17118-.8105.24554-1.64724.39409-2.49271.44247-.91133.04645-1.81563.18482-2.69918.41299-1.99734.70053-3.83683,1.78817-5.41317,3.20071-.53097.41299-1.25374.97349-1.59295,1.19472l-.5605.35398c-1.88706,1.35402-4.11384,2.15583-6.43086,2.31572h-.17699c-1.84507-.13778-3.43806-1.34412-4.07094-3.08269-.52269-1.91106.04348-3.9549,1.47497-5.32463.708-.708,1.47497-1.40124,2.30095-2.06495,1.20751-.94139,2.30582-2.01499,3.27444-3.20071.95121-1.43019.86159-3.31284-.22124-4.64616-1.28259-1.02768-2.80514-1.71286-4.42492-1.99122h-.50149c-.57526-.11798-1.12099-.19175-1.68149-.3245-1.34516-.58494-2.6214-1.31707-3.80541-2.18298-.46782.73695-.6755,1.60925-.58998,2.47794.37896,2.05334,1.71642,3.8019,3.59894,4.70517l.22124.08849c.54092.20607,1.11775.30136,1.69621.28025h.76697c.37581-.01337.75194.01629,1.12099.08849.39341.11829.68523.45017.75225.85546,0,.25077-.08849.45724-.41299.708l-.89971.75225c-1.60857,1.22614-3.09088,2.60965-4.42492,4.12991-1.55424,2.04911-1.92875,4.7599-.98825,7.15363,1.08989,2.52305,3.44864,4.26819,6.18014,4.57243.41988.06428.84372.09876,1.26846.10326,1.34453-.04915,2.67758-.26719,3.96768-.64899h.11798s.16223,0,.19175.29501c0,.5605.07373,1.20949.08849,1.82895,0,1.01774.08849,1.96169.16223,2.37469.22425.92983.53025,1.838.91448,2.71395.13274.30973.22124.54573.26548.66376.12586.38936.02336.81639-.26548,1.10623-.97164.76688-2.09156,1.32432-3.28921,1.6372-.57526.07373-1.19472.10326-1.65196.13274h-.50149c-.20526.01864-.39791.10713-.54573.25077-.40223.59538-.71525,1.24631-.92924,1.93221-.20652.54573-.42775,1.09147-.64899,1.56347-.68176.94247-1.58971,1.69824-2.64021,2.1977l-.73749.44247h0c-.37045.63958-.82706,1.2252-1.357,1.74046-.41907.33579-.93802.5226-1.47497.53097h0c-.69508.94891-1.13216,2.06189-1.26846,3.2302,0,.17699-.07373.35398-.11798.53097v.16223h.10326c.41299,0,.82598.13274,1.25374.22124.5704.14116,1.1534.22515,1.74046.25077.51409.0126,1.0226-.10943,1.47497-.35398.65453-.3935,1.1701-.98127,1.47497-1.68149.23704-.44783.52939-.86406.87023-1.23897.19783-.23141.49257-.35695.7965-.33926.30996.0194.61676.07382.91448.16223.27912.08206.56567.13639.85546.16223,1.21944-.04042,2.38927-.49275,3.31869-1.28322.28025-.22124.5605-.48672.82598-.73749.39742-.3994.83201-.75995,1.29798-1.07675.65021-.28443,1.3556-.42046,2.06495-.39823.99217.03718,1.97916.16056,2.94995.36874.48159.1259.97718.19031,1.47497.19175.7861.01008,1.56207-.17757,2.25671-.54573l2.15345-1.16524.92924-.50149c1.03484-.75986,1.85339-1.77669,2.37469-2.94995.3245-.64899.88499-2.03547.88499-2.05023h0l-1.28322-.97349v.08849c-.42213.7049-.88508,1.38454-1.38648,2.03547-2.25671,3.08269-5.89989,3.4662-8.84984,3.4662h-.60474c-3.31959-.14701-6.53178,1.19414-8.76134,3.65795-.0862.09777-.23533.10709-.33309.02089-.00738-.00653-.01436-.0135-.02089-.02089-.03984-.08399-.03984-.18149,0-.26548.04452-.21327.12428-.41767.236-.60474,2.28619-3.24496,6.19491-3.73168,9.35133-3.79069,1.90471-.05406,3.77773-.50099,5.50167-1.31275,1.8236-1.0659,3.18928-2.76774,3.83494-4.7789.32346-1.12077.56018-2.26481.708-3.42195.12027-.90781.28768-1.80874.50149-2.69918.04164-.11168.14638-.18734.26548-.19175h.07378c.11798,0,.33926.10326.35398.28025-.56792,2.05595-.56792,4.22745,0,6.2834.49401.87815,1.48321,1.35506,2.47794,1.19472.82184-.02435,1.64048-.11312,2.44846-.26548.63423-.10326,1.23897-.19175,1.75522-.22124h.66376c.99401.03529,1.98213.16866,2.94995.39823.85024.18865,1.71282.3168,2.5812.38351h1.44549c.59187.04609,1.18127-.11559,1.66673-.45724.26548-.22124.17699-.54573,0-.97349v-.07373c-.0199-.08003-.04452-.15885-.07373-.236-.17699-.5605-.42775-1.38648,0-1.76999.06927-.04812.15165-.07382.236-.07373.09052-.00594.17429.04794.20652.13274,0,.16223.08849.3245.14751.48672.15457.69139.42911,1.35038.81122,1.94698,1.10366,1.31545,2.47025,2.38558,4.01193,3.1417,1.3899.833,2.33206,2.24631,2.56644,3.84966,0,.81122-.7965,1.38648-1.37171,1.74046-1.00869.54362-2.11807.87491-3.25968.97349-.40894-.03448-.79875-.18833-1.12099-.44247-.89971-.82598-.7965-1.12099-1.38648-2.09448-.30622-.54398-.65646-1.06194-1.04722-1.5487-.56567-.61559-1.40093-.90876-2.22722-.78173-.93293.09471-1.85902.24739-2.77296.45724-.20152.03524-.37261.16772-.45724.35398-.10763.20818-.10763.45557,0,.66376.51625.92924,1.0325,1.78471,1.56347,2.68446l.236.39823c.15097.19148.3931.28723.63423.25077h.85546c.35848-.04816.71755.0844.95872.35398.16223.25077.30973.51625.44247.76697.31392.67204.76629,1.27017,1.32747,1.75522.61402.50581,1.38751.77755,2.18298.76697.3601-.00108.718-.05577,1.06198-.16223,2.41659-.6855,4.76251-1.59916,7.00612-2.72871h1.22421c.77669.04227,1.54069-.21061,2.13873-.708.70256-1.01922,1.32868-2.08904,1.8732-3.20071.48145-.84588.48145-1.88283,0-2.72871-.94639-1.36762-1.70535-2.85583-2.25671-4.42492h0l-.50149-.17699c-.35767-.16371-.74293-.25878-1.13571-.28025h0c-.48672,0-.82598.16223-.95872.44247h0l2.5812,5.10339c.22862.42915.31639.91943.25077,1.40124-.40232,1.0501-.99766,2.01562-1.75522,2.84669-.06387.04987-.14062.08053-.22124.08849,0,0-.16223,0-.07373-.3245.29947-1.11109.45314-2.25644.45724-3.40718-.66659-1.53317-1.45067-3.01256-2.3452-4.42492h0c-.39242-.50963-.61897-1.12748-.64899-1.76999.02926-.27647.22088-.50869.48672-.58998.36622-.12104.74091-.21471,1.12099-.28025.91448-.20652,1.8732-.41299,2.21246-.92924,1.06752-1.6629,1.77125-3.53277,2.06495-5.4869,0-.10326.08849-.29501.236-.29501s.16223,0,.20652.22124c.36019,2.18388-.17118,4.421-1.47497,6.20962-.09259.14418-.12441.31914-.08849.48672.04051.13135.12351.2455.236.3245,1.23483.2875,2.53281.09228,3.62842-.54573.96205-.01557,1.92033-.12428,2.86145-.3245l.87023-.16223c.07751.04393.1394.11096.17699.19175-.76076.86996-1.27062,1.93046-1.47497,3.06792-.20652.22124-.45724.44247-.67848.64899-.9292.65012-1.57337,1.63216-1.79947,2.74343-.01629.21935.14832.41038.36762.42667.01022.00077.02039.00113.03061.00108.14967-.00639.29596-.04672.42775-.11798.13823-.06819.28862-.1083.44247-.11798.13243.02458.2338.13189.25077.26548l-.95872,1.47497c-.25747.57733-.25747,1.2369,0,1.81423.10326.33926,0,.58998.14751.88499.32886.67573,1.03497,1.08422,1.78471,1.0325,1.2026-.11127,2.38126-.40471,3.49568-.87023l.58998-.20652c1.52264-.54726,3.16862-.65457,4.74942-.30973,1.47884-.25257,2.82967-.99554,3.83494-2.1092.58237.07756,1.1115.37919,1.47497.84075,1.59525,1.76846,3.88814,2.74496,6.26864,2.6697h.53092c.26548,0,.33926-.19175.35398-.35398s-.13274-.39823-.42775-.53097l-1.47497-.75225c-1.18874-.58642-2.14872-1.55154-2.72871-2.74343-.3876-1.1597-.9125-2.26886-1.56347-3.30393-.10326-.16223-.20652-.3245-.3245-.48672-.21111-.28407-.39859-.58498-.5605-.89971h0c1.58107.70845,2.82423,2.0045,3.4662,3.6137,1.00698,1.69238,2.77165,2.79191,4.73465,2.94995.24757-.00185.49446-.02651.73749-.07373.18554-.02791.33332-.16974.36874-.35398.19959-.02035.34489-.19864.32454-.39823-.02039-.19954-.19864-.34484-.39823-.3245h0l-.01476.01476ZM343.13749,239.99288c0,.14751-.13274.25077-.236.25077s-.14751,0-.19175-.22124c-.18838-1.38706-.56554-2.74185-1.12099-4.02669-.14138-.27624-.30933-.53804-.50149-.78173-.33926-.472-.64899-.88499-.30973-1.47497.15007-.18527.38184-.28457.61951-.26548.1264.0018.2514.02678.36874.07373.54002.3538.95332.87045,1.17996,1.47497.58188,1.5961.64895,3.33444.19175,4.97065ZM356.07303,260.64251c-.02503.30375-.14355.59232-.33926.82598-.54857.27278-1.15813.39976-1.76999.36874-.51625,0-.69324-.08849-.7965-.25077s.07373-.53097.07373-.53097c.36829-.80492,1.05077-1.42343,1.88796-1.71097.24617-.09849.5208-.09849.76697,0,.38355.17699.22133,1.10623.17708,1.29798ZM359.61296,252.54492c-.03637.2875-.12113.5668-.25077.82598-.08116.2229-.2938.37054-.53097.36874-.38351,0-.35398-.45724-.36874-.51625-.01355-.61069-.11285-1.21642-.29501-1.79947-.26548-.57526-1.47497-2.21246-2.27147-2.15345-.41209.14107-.76859.4097-1.01774.76697-.42775.5605-.42775.63423-.5605.708s-.30973,0-.36874-.29501c-.10303-.40655-.10303-.83242,0-1.23897.11618-.42712.28461-.83831.50149-1.22421,0,0,.38351-.88499.53097-1.10623.18833-.33849.542-.55181.92924-.5605.43473-.00779.84448.20265,1.09147.5605.23866.27323.44184.57553.60474.89971.22745.36739.49455.70868.7965,1.01774.52633.61622.90921,1.34169,1.12099,2.12397.12401.51652.15399,1.05109.08854,1.57823v.04425ZM329.11052,262.86973c.22133.35772.41371.73258.57526,1.12099.29501.64899.54573,1.19472.84075,1.29798.13666.02368.27633.02368.41299,0,.82814-.06329,1.61879-.37131,2.27147-.88499.38351-.3245.25077-.53097.08849-.81122-.06824-.10285-.12748-.21142-.17699-.3245-.15525-.33336-.28349-.67861-.38351-1.0325-.19175-.64899-.33926-1.19472-1.0325-1.10623-1.00126.14467-2.01202.21367-3.02368.20652,0,0-.35398,0-.45724.236s.14751.51625.44247.78173c.17168.13742.32526.296.45719.47196l-.01472.04425Z" style="fill: #e2071f; stroke-width: 0px;"></path><path d="M467.84651,269.86109c-.10875-.1954-.19301-.40345-.25072-.61951,0-.29501-.10326-.60474-.14746-.89971-.03241-.44225-.12162-.87851-.26548-1.29798-.21345-.4522-.6652-.74388-1.1652-.75225-.1688.00405-.3348.04429-.48677.11798-.72272.36874-1.15052.75225-1.0325,1.56347.34507,1.05496.63072,2.12847.85551,3.21543,0,.17699.14746.76697.42771.76697h0l2.07967-.67848c.09795-.02899.17861-.09889.22128-.19175.19166-.30969-.02953-.76692-.23605-1.22416ZM464.76377,264.72817c-.48163-.59169-1.06626-1.09138-1.72569-1.47497-.26548-.17699-.50153-.33926-.66376-.472l-.11802-.08849c-.12955-.11613-.29807-.17933-.472-.17699-.61793.08264-1.14575.48686-1.38648,1.06198,0,.39823.54573,1.10623,1.28322,1.97646l.16223.19175c.29159.39152.7265.65142,1.20949.72272h0c.42897-.00113.83904-.17685,1.13576-.48672.25081-.25072.85551-.91448.57526-1.25374ZM416.00116,261.77822c-.37685.04614-.75603.07071-1.13571.07373h-1.01774c-.2062-.01625-.41331-.01625-.61951,0h0c-.3912.64863-.61901,1.38256-.66376,2.13873.10326.87023.98825,1.04722,1.66673,1.17996.26175.05897.52836.09354.7965.10326.38904.04906.76877-.14368.95872-.48672.34804-.86465.60029-1.76485.75225-2.68446.04195-.07832.04195-.17244,0-.25077-.13022-.11343-.29956-.17163-.472-.16223l-.26548.08849ZM463.2003,267.89935h0c-1.19472.07373-1.94698-.89971-2.6697-1.84372-.21687-.30046-.45337-.58624-.70796-.85546-.35722-.39971-.74163-.77426-1.15052-1.12099-.36442-.27341-.67879-.60776-.92924-.98825-.22155-.55046-.39908-1.11766-.53097-1.69621-.13279-.472-.25072-.91448-.35398-1.22421v-.19175c-.22128-.57526-.48677-1.29798-1.23902-1.47497-.39134-.05203-.78529-.08156-1.17996-.08849-1.02098.0907-2.02863-.28308-2.74343-1.01774-.40385-.63976-.40385-1.45472,0-2.09448.12234-.28137.22101-.57247.29501-.87023.41403-1.32202.4901-2.72668.22128-4.08566,0-.17699-.10326-.36874-.16223-.54573-.20283-.46345-.27917-.97241-.22128-1.47497.07697-.17983.26287-.28777.45724-.26548.21075.01197.41907.05163.61946.11798l.39827.10326c1.89017.4937,3.89179.33255,5.67861-.45724,2.42141-1.09043,3.99577-3.48069,4.04141-6.13589-.28025-2.87622-2.05023-5.64913-5.42789-8.4811l-.25072-.20652c-.44247-.36874-.97344-.81122-.98821-1.22421s1.0325-.64899,1.69626-.81122l.41304-.10326h.17699c.85578-.16911,1.67483-.48875,2.41898-.944,1.80951-1.43982,2.611-3.80402,2.05023-6.0474-.00828-.04884-.00828-.09867,0-.14751,0-.20652-.10326-.45724-.29501-.45724-.0686.00401-.13261.03597-.17699.08849l-.22128.20652c-.28106.29024-.59831.54308-.944.75225-.80735.4197-1.68023.699-2.5812.82598-.574.10605-1.14062.24892-1.69626.42775-1.96048.4431-3.59903,1.78124-4.42492,3.6137-.26152.96039-.1119,1.98627.41304,2.83197.84705,1.23798,1.83723,2.37171,2.94995,3.3777,1.72569,1.65196,3.51044,3.36294,3.92339,5.69338.20706,1.39544-.45967,2.7757-1.68149,3.48092-.80005.45058-1.70769.67492-2.6255.64899-1.27431-.01274-2.52755-.32607-3.6579-.91448-1.40385-.74644-2.76305-1.57382-4.07094-2.47794-1.92402-1.41695-4.03313-2.56333-6.26864-3.40718-1.00135-.40619-2.04537-.6981-3.11217-.87023-1.53016-.19153-2.99469-.7369-4.27746-1.59295-.42771-.28025-.85551-.58998-1.25369-.88499-1.06698-.87946-2.287-1.55451-3.59894-1.99122-.48182-.14548-.97533-.2491-1.47497-.30973-.71714-.04438-1.41182-.26751-2.02071-.64899l-.85546-.61951c-1.01152-.7866-2.0871-1.48717-3.21543-2.09448-1.93433-.87896-3.97074-1.51319-6.06212-1.88796-.66538-.22619-1.2329-.67397-1.60772-1.26846-.29159-.40219-.64503-.75563-1.04722-1.04722-1.426-1.35312-3.28781-2.15327-5.2509-2.25671h-.5605c-1.046.2053-2.00666.71903-2.75819,1.47497-1.99122,1.74046-4.12991,3.30393-6.20962,4.79366-3.25387,2.19198-6.27377,4.71273-9.01207,7.52237-2.68446,2.77296-3.65795,6.22439-4.60191,9.57256-.13274.48672-.28025.98825-.42775,1.47497-.25077.91448-.48672,1.85848-.708,2.77296-1.22421,4.94117-2.50747,9.86757-7.37487,13.06824-.19175.12351-.24712.37905-.1236.57085.05005.07769.12473.13639.2121.16664,1.55838.43766,3.22835-.08242,4.26269-1.32747,1.28322-1.47497,1.93221-2.94995,3.43667-4.57243,0,0,.22124-.20652.36874-.17699s.14751.08849.10326.28025c-.2162.63139-.5406,1.22029-.95872,1.74046-.41727.54722-.75036,1.15372-.98825,1.79947-.66079,1.42321-1.67667,2.65241-2.94995,3.56946-.11019.06855-.20962.15304-.29501.25077-.10326.13274-.10326.19175-.10326.19175,0,.30973.22124.50149.708.53097h0c2.75819,0,4.73465-1.96169,6.63738-3.86442.08462-.0866.20404-.13004.3245-.11798.1015-.02687.20823-.02687.30973,0,.22767.16799.44445.35024.64899.54573.57135.60992,1.29398,1.05775,2.09448,1.29798h0c.94144-.15349,1.89292-.23731,2.84669-.25077h.75225c1.00297.30973,2.02071.67848,2.94995,1.04722.69324.26548,1.47497.53097,2.1092.76697h0c.91448,0,1.57823-.88499,2.06495-1.65196.16187-.51364.16187-1.06459,0-1.57823-.0699-.29978-.10456-.60668-.10326-.91448.21088-.06873.43811-.06873.64899,0,.21566.02386.43334.02386.64899,0,.30271-.06482.49554-.36271.43073-.66542-.00095-.00437-.00194-.00873-.00297-.01305-.21021-.80217-.58714-1.551-1.10623-2.1977-.41209-.55352-.7401-1.16484-.97349-1.81423-.37464-.8389-.91092-1.59574-1.57823-2.22722-.74563-.66925-1.30041-1.52431-1.60772-2.47794v-.28025c0-.07373.26548,0,.26548,0,.3245.236.66376.51625.98825.78173.95836.93928,2.14971,1.60623,3.45143,1.93221,1.28529.17366,2.5839.22794,3.87919.16223.28344-.0307.48834-.28538.45764-.56882-.00293-.0271-.00801-.05388-.01517-.08017-.57675-1.15228-1.04105-2.35754-1.38648-3.59894-.56612-1.7744-.65768-3.66614-.26548-5.4869.02863-.14773.1593-.25351.30973-.25077h0c.2098.08458.35681.27683.38351.50149v.25077c.17699,2.64021.35398,5.13292,1.97646,7.27161.42604.59673.9937,1.07823,1.65196,1.40124.44126.20602.84115.49095,1.17996.84075.33579.47461.39742,1.09079.16223,1.62248l-1.97646,2.94995c-.48933.63067-.85925,1.34547-1.09147,2.1092-.1029.70922-.1029,1.42951,0,2.13873v.16223c-.06648-.03533-.11865-.09268-.14751-.16223-.73263-1.05429-.93932-2.38702-.5605-3.6137.26548-.60474,1.8732-2.94995,2.3452-3.64319.14751-.236.26548-.48672.14751-.64899-.50567-.35249-1.07778-.5984-1.68149-.72272h0c-.2717.11244-.4959.31581-.63423.57526l-.10326.16223-2.44846,4.42492v.16223c-.1832.42235-.23461.89017-.14751,1.34223.13499.64228.30239,1.27732.50149,1.90273,0,.14751.08849.29501.11798.44247.14021.67487.39994,1.31927.76697,1.90273.20859.24577.51868.38175.84075.36874.18658.01377.37392.01377.5605,0,.29281-.05064.59219-.05064.88499,0,.35236.12473.66015.35042.88499.64899.24428.32387.57733.56981.95872.708.75225.25077,1.47497.45724,2.31572.66376,1.04371.25338,2.07279.5636,3.08269.92924.56914.20526,1.16569.32454,1.76999.35398.60573.00869,1.18982-.22497,1.62248-.64899.68217-.54645,1.13049-1.33233,1.25374-2.1977.16223-.84075.44247-.89971,1.04722-.92924.21624.009.43203-.02611.63423-.10326.69558-.5587,1.25954-1.26373,1.65196-2.06495l.38351-.64899c.11807-.16367.18482-.3588.19175-.5605.00009-.32585-.26395-.59007-.5898-.59016-.005,0-.00995.00005-.01494.00018h-3.4662c-1.07675,0-1.47497,1.09147-1.91745,1.99122-.12874.33507-.28155.66043-.45724.97349-.30194.52426-.87054.83696-1.47497.81122-.29447-.03488-.58552-.09408-.87023-.17699-1.47497-.33926-2.86145-.708-3.45143-2.09448-.12509-.39409-.0478-.8245.20652-1.15048.83224-1.00711,1.75554-1.93536,2.75819-2.77296,1.51449-.36789,2.81702-1.33017,3.6137-2.6697.15259-.22916.26251-.48402.3245-.75225.0785-.39458.2924-.74937.60474-1.00297.236-.11798.41299-.07373.45724.11798.06068.73726-.08219,1.47704-.41299,2.13873l-.17699.45724v.11798h.11798c.39791.02242.79681.02242,1.19472,0,1.40295-.03957,2.79974-.20242,4.17415-.48672,1.35465-.28349,2.73177-.44639,4.11519-.48672h.45724c.63427,0,1.23897,0,1.829.10326.48461.0645.97182.1088,1.46012.1327h.6047c1.52908.09943,2.94986-.79227,3.52521-2.21246.37514-1.88877.33489-3.83651-.11802-5.70814.00495-.07364.00495-.1476,0-.22124h0c0-.10326,0-.20652.13279-.26548s.35398,0,.42771.22124c.62027,1.84003,1.0551,3.7374,1.29798,5.66389.30167,1.6467.95022,3.21039,1.90268,4.58715,1.31923,1.95512,3.54195,3.10538,5.89989,3.05321.5686-.0226,1.13522-.0817,1.69626-.17699.26476-.02741.53169-.02741.79645,0,3.05645-.014,5.93923,1.4192,7.77314,3.86442.01846.03718.01846.0808,0,.11798-.03214.11789-.15376.18743-.27161.15529-.00792-.00216-.01575-.00477-.02341-.00779l-.26548-.20652c-1.62018-1.51783-3.62478-2.56342-5.79663-3.02368-.4188-.07283-.84336-.1074-1.26846-.10326-.64152.01121-1.28178.06045-1.91745.14751-.59669.07981-1.19752.12414-1.79942.13274-.70085.01134-1.39728-.11388-2.05023-.36874-2.48704-1.10893-4.42978-3.16313-5.39836-5.70814-.05393-.10587-.16151-.17375-.28025-.17699-.07904.00437-.15547.0298-.22128.07373-.29501.19175-.35398.29501-.39827.472.05915.69513.16763,1.38517.32445,2.06495.18914,1.79807,1.16727,3.4192,2.6697,4.42492.9558.78651,2.10857,1.29659,3.33345,1.47497.3818.05181.76873.05181,1.15052,0,.65835-.148,1.33111-.22223,2.00594-.22124,2.21696.02089,4.37018.74379,6.15061,2.06495.30888.18986.6002.40705.87027.64899.37315.35952.8078.64926,1.28322.85546.31203.11604.64071.18082.97344.19175.58435-.00923,1.15133-.19995,1.62243-.54573.21516-.10938.45193-.16983.69319-.17699.66376,0,1.0325.51625,1.47497,1.17996.2996.44819.64566.86348,1.0325,1.23897.5866.48267,1.33687.72043,2.09444.66376h2.3746v-.08849c-.05384-1.36658-.37441-2.7094-.94373-3.95292l.05897.07373ZM393.87656,261.70444c-.18446.24901-.48915.37878-.7965.33926-.31747.00225-.62919-.08462-.89971-.25077-.52746-.41002-.833-1.04294-.82598-1.71097-.03916-.20949.04726-.42262.22124-.54573.10164-.06189.2211-.08786.33926-.07373.62743.04668,1.21322.33165,1.6372.7965,0,0,.54578.7965.236,1.37176l.08849.07369ZM394.55504,250.78965c-.13652.25297-.43883.36631-.708.26548-.26792-.14337-.4806-.37167-.60474-.64899-.17699-.29501-.30973-.5605-.708-.53097h0c-.33678.04659-.65097.19598-.89971.42775-.14751.11798-.708.53097-.85546.66376-.81059.53592-1.42222,1.32378-1.74046,2.24194q0,.3245-.10326.48672c-.00878.31635-.14751.61514-.38351.82598h-.14751c-.12545-.00153-.24608-.04875-.33926-.13274-.10272-.06941-.16367-.18577-.16223-.30973-.1719-1.49113.37572-2.97511,1.47497-3.99716.68667-.60952,1.30492-1.29204,1.84372-2.03547.26548-.35398.54573-.708.84075-1.04722s.57526,0,1.17996.61951c.55289.76661,1.01796,1.59286,1.38648,2.46323.03385.22461-.02467.45337-.16218.63418l.08845.07373ZM407.57903,232.51471l-.92924.85546c-1.11771.94585-2.10916,2.03146-2.94995,3.2302-.34142.49608-.63292,1.02476-.87023,1.57823,0,0-.08849.17699-.20652.17699-.06162-.00243-.11987-.0289-.16223-.07373-.14521-.81756-.0636-1.6593.236-2.4337.80348-1.89742,2.12158-3.53227,3.80541-4.71993.20044-.1214.42947-.18752.66376-.19175.30235-.0199.58498.15088.708.42775.14328.40799-.02399.86019-.39823,1.07679l.10321.07369Z" style="fill: #e2071f; stroke-width: 0px;"></path><path d="M208.61995,170.55116h30.38446l-16.04772-25.91529-29.49947,46.78615h-13.46651l35.91561-56.15224c1.59214-2.31212,4.22844-3.6828,7.03561-3.65795,2.75527-.02948,5.34831,1.3001,6.93239,3.55469l35.98934,56.2555h-13.42227l-6.32765-10.42807h-30.76792l-6.71111-10.41331M348.04917,180.99395v-48.7921h-11.41628v53.57104c.0113,1.48046.61721,2.89427,1.68149,3.92343,1.08926,1.11685,2.58458,1.74478,4.14467,1.74046h51.88955l6.75536-10.45756h-53.09904M159.57709,172.24737c11.05825-.30023,19.77935-9.50815,19.47912-20.5664-.2888-10.63612-8.84304-19.19032-19.47912-19.47912h-49.79511v59.23493h11.3868v-48.79214h37.74456c5.29492,0,9.58733,4.2924,9.58733,9.58733s-4.2924,9.58733-9.58733,9.58733h-32.12492l34.01288,29.61744h16.51972l-22.84732-19.17465h5.19189M39.765,191.43674h34.42587c16.35727,0,29.61744-13.26018,29.61744-29.61744s-13.26018-29.61749-29.61744-29.61749h-34.48488c-16.35727,0-29.61747,13.26018-29.61747,29.61749s13.2602,29.61744,29.61747,29.61744h0M73.36488,180.99395h-32.89191c-10.58987,0-19.17465-8.58481-19.17465-19.17465s8.58478-19.17465,19.17465-19.17465h32.89191c10.58985,0,19.17465,8.58481,19.17465,19.17465s-8.58481,19.17465-19.17465,19.17465M289.64022,191.42202h35.14859l6.69639-10.42807h-41.07801c-10.58985,0-19.17465-8.58476-19.17465-19.17465s8.58476-19.17465,19.17465-19.17465h33.39337l6.74064-10.47232h-40.88622c-16.36136-.36483-29.9206,12.6029-30.28548,28.96422-.36483,16.36136,12.6029,29.92065,28.96427,30.28548.44036.00981.88085.00981,1.32121,0M428.92194,180.99395c-8.57963.00086-16.11564-5.69783-18.45193-13.95323h48.67412l6.71111-10.44279h-55.38523c2.33629-8.25545,9.87226-13.95413,18.45193-13.95328h33.42285l6.68167-10.47232h-40.85678c-16.35727,0-29.61749,13.26018-29.61749,29.61744s13.26022,29.61749,29.61749,29.61749h35.14864l6.68167-10.42807h-41.07806" style="fill: #fff; stroke-width: 0px;"></path></g></g></svg> 