<?xml version="1.0" encoding="UTF-8"?> <svg xmlns="http://www.w3.org/2000/svg" id="uuid-e9f67825-ba78-430f-9cfd-a50726155366" data-name="Layer 2" width="480" height="480" viewBox="0 0 480 480"><g id="uuid-f442a0da-58ea-45fd-a795-73a7068a66dc" data-name="uuid-9143aa05-ee38-4f69-bec5-0ae91051ed25"><rect width="480" height="480" style="fill: none;"></rect><g><path d="M37.68684,179v35.81261l25.69836-31.92093c1.13025-1.15392,5.2777-3.89168,6.74573-3.89168h18.08359l.34526,33.33275,15.07898-18.44038h-6.02786l11.52386-14.89237h38.11738l-56.54686,70.92474c-1.53209,1.53076-5.69988,4.24628-7.80945,4.24628h-20.03378v-32.97596l-26.41623,32.97596H11.80248v-75.17101h25.88436Z" style="fill: #fff;"></path><path d="M406.45031,254.17101h-21.6294v-34.92616c0-.40373-1.13144-2.62084-1.4768-3.13274-3.62665-5.37536-13.01882-4.45519-15.26321,1.63968-.1228.33349-.63442,2.04626-.63442,2.20222v34.21699h-21.6294v-34.21699c0-.20974-.81407-2.51388-1.00029-2.90009-2.54781-5.28402-10.81483-5.88334-14.5995-1.70771-.48275.53262-2.12922,3.36717-2.12922,3.89864v34.92616h-21.6294v-59.2149h21.6294c.14215.52153-.44299,2.4054.52171,2.11965.88421-.2619,2.19246-1.29484,3.28642-1.68003,9.48203-3.33875,21.04916-1.68096,28.27647,5.50348,11.65825-9.55434,31.63107-10.10302,41.84959,1.85345,1.45392,1.7012,4.42805,6.54717,4.42805,8.69142v42.72692Z" style="fill: #fff;"></path><path d="M280.21973,254.17101l-.00355-3.54571c-17.55192,11.19243-42.88207,2.6858-48.39499-17.73076-7.02632-26.02128,19.13044-46.30543,43.42196-36.68494.68789.27244,4.75536,2.53482,4.97468,2.29057l.00191-3.54406h21.6294v59.2149h-21.6294ZM264.18422,212.43115c-17.10106,1.85449-14.42851,24.95354,2.37455,24.00917,18.18972-1.0223,15.76515-25.97629-2.37455-24.00917Z" style="fill: #fff;"></path><path d="M467.79269,214.81261h-23.57959c-.74405-.56207-.44235-1.56768-.79885-2.39237-1.15068-2.66181-8.9346-2.58055-8.25422,1.1446.22183,1.21455,3.08426,1.87925,4.18995,2.21051,10.9866,3.2915,27.7016,2.24166,28.79162,17.65826,1.32074,18.67974-21.05476,23.71946-35.57922,21.75072-11.62045-1.57511-23.34264-8.75849-22.2117-21.93354h22.69314c-.62607,2.99573,2.86045,5.40266,5.49369,5.67264,5.00301.51294,10.80882-3.88599,3.44975-5.57421-7.47242-1.71422-13.47971-1.39767-20.77228-5.11216-18.94764-9.65104-11.40322-28.84837,7.06752-33.25542,14.36999-3.42862,40.65089.35225,39.51018,19.83097Z" style="fill: #fff;"></path><rect x="152.92542" y="179" width="21.6294" height="75.17101" style="fill: #fff;"></rect><rect x="179.16436" y="179" width="21.6294" height="75.17101" style="fill: #fff;"></rect><rect x="205.4033" y="196.01985" width="21.6294" height="58.15116" style="fill: #fff;"></rect><polygon points="148.67046 196.01985 148.67046 254.17101 126.68648 254.17101 126.68648 211.08951 138.56492 196.01985 148.67046 196.01985" style="fill: #fff;"></polygon><path d="M314.9686,273.67293l7.44237,20.56528,7.27271-20.56528h6.91432v26.41623c0,.2191.0033.46378.0033.88332l-4.25827.00313v-23.04772l-8.48703,23.04312-3.05202.02899-9.0266-23.07211v23.04772h-3.90038v-27.30268h7.09161Z" style="fill: #fff;"></path><path d="M227.0327,192.11947h-21.6294v-13.11947h18.97004c.84224,0,2.65935,2.58585,2.65935,3.36851v9.75096Z" style="fill: #fff;"></path><path d="M264.97278,273.67293v3.5458h-15.24695v8.15535h13.82863l.01453,3.3754c-.41716,0-.41026.00147-.69981.00147-5.58575,0-9.34595-.04946-12.41942-.03961-.41388.00133-.32161.00315-.72394.00315v8.71532h16.66527v3.5458h-20.92024v-27.30268h19.50191Z" style="fill: #fff;"></path><path d="M289.39851,273.71538l10.67631,27.25844-4.22165-.00281-2.73109-6.75488-12.93951.24164-2.49312,6.46993-4.5612.04437,11.0402-27.25111,5.23006-.00559ZM291.5663,290.69278l-4.78681-12.76849-4.78686,12.76849h9.57367Z" style="fill: #fff;"></path><polygon points="172.42734 273.67293 172.42734 277.21873 157.18038 277.21873 157.18038 285.19679 157.71225 285.72866 170.65443 285.72866 170.65443 289.27446 157.18038 289.27446 157.18038 300.97561 152.92542 300.97561 152.92542 273.67293 172.42734 273.67293" style="fill: #fff;"></polygon><polygon points="237.31552 273.67293 237.31552 277.21873 228.09644 277.21873 228.09644 300.97561 223.84147 300.97561 223.84147 277.21873 214.26781 277.21873 214.26781 273.67293 237.31552 273.67293" style="fill: #fff;"></polygon><path d="M188.02887,300.97561v-23.75688h-8.15535v-3.5458h11.87844l.53187.04487v26.01678c0,.31775-.15362,1.08708-.56799,1.18628l-3.68697.05475Z" style="fill: #fff;"></path></g></g></svg> 